<svg xmlns="http://www.w3.org/2000/svg" width="530" height="471">
  <path d="M198.672 88.3c2.1.631 4.202 1.197 6.328 1.731 7.177 1.892 11.042 3.662 15 9.969l2.035 3.11a611 611 0 0 1 4.637 7.25c2.05 3.23 4.195 6.38 6.39 9.515 4.368 6.25 8.594 12.587 12.813 18.938a1660 1660 0 0 0 16.879 24.93c2.796 4.055 5.528 8.15 8.246 12.257l3.467 5.202 2.574 3.86q3.284 4.93 6.58 9.852c4.257 6.36 8.476 12.73 12.516 19.23 1.662 2.549 3.382 5.036 5.133 7.524 4.277 6.082 8.377 12.276 12.48 18.477 2.926 4.408 5.886 8.782 8.938 13.105A179 179 0 0 1 330 264.5a224 224 0 0 0 9.152 13.84c2.201 3.168 4.277 6.406 6.348 9.66a345 345 0 0 0 9.8 14.547c2.517 3.633 4.868 7.365 7.22 11.105 1.134 1.8 2.3 3.578 3.48 5.348q.07-38.076.104-76.153.014-17.683.047-35.366.03-15.43.037-30.86.003-8.155.023-16.309c.18-31.312.18-31.312-2.144-62.516C364 96 364 96 365 94q10.875-.07 21.749-.104 5.05-.014 10.099-.047c3.87-.024 7.74-.035 11.609-.044l3.665-.032h3.397l2.994-.014C421 94 421 94 424 96v2l-2.746.7c-12.619 2.844-12.619 2.844-21.822 10.983-1.525 3.532-1.92 6.1-2.11 9.927l-.1 1.95c-.408 8.887-.37 17.786-.367 26.679l-.01 5.978q-.014 8.051-.012 16.102l-.006 10.082q-.013 17.614-.012 35.23-.001 16.377-.026 32.755-.019 14.106-.018 28.212.002 8.406-.013 16.812-.014 7.9-.003 15.801.003 2.887-.007 5.776c-.806 16.72-.806 16.72 4.264 32.025 4.052 2.696 8.207 4.249 12.8 5.8l2.678.944q3.249 1.14 6.51 2.244l-1 3c-3.623.816-7.055 1.173-10.765 1.288l-3.44.107q-6.738.165-13.478.257a476 476 0 0 0-10.208.233c-3.938.137-7.875.183-11.816.224l-3.672.163c-5.094-.01-8.305-.03-12.113-3.625-2.062-2.801-3.813-5.612-5.508-8.647a584 584 0 0 0-3.125-4.875l-1.715-2.738c-2.867-4.537-5.866-8.987-8.848-13.45l-1.846-2.763-3.698-5.53c-2.594-3.878-5.18-7.761-7.768-11.644l-1.453-2.179q-4.05-6.073-8.09-12.153l-3.644-5.48-1.795-2.699A760 760 0 0 0 299 270.813c-3.059-4.38-5.858-8.84-8.559-13.446-1.453-2.387-3.008-4.653-4.628-6.93-3.234-4.545-6.289-9.19-9.313-13.875l-1.45-2.245a1099 1099 0 0 1-7.613-12.005c-2.6-4.112-5.391-8.063-8.25-12-5.067-6.983-9.596-14.256-14.122-21.598-3.943-6.346-8.263-12.437-12.536-18.562-3.513-5.066-6.82-10.25-10.095-15.472-3.312-5.008-6.903-9.825-10.434-14.68l-1 71-4 1-1.766-2.5a833 833 0 0 0-16.122-21.992l-1.448-1.914-1.267-1.666L185 182l-2.142-2.381c-3.288-5.014-2.343-11.364-2.249-17.111l.018-3.943c.015-3.443.054-6.885.098-10.327.041-3.52.06-7.039.08-10.558.042-6.894.11-13.787.195-20.68l-3.674-.43a91 91 0 0 1-9.549-1.691c-29.468-6.664-66.4-11.683-93.964 4.371-6.556 4.593-11.056 10.72-12.563 18.664-1.086 9.059-.284 17.5 5.223 25.125 8.468 9.09 19.969 12.803 31.465 16.461q2.247.73 4.493 1.463A1955 1955 0 0 0 115 185l2.788.89c3.576 1.14 7.157 2.265 10.74 3.387a3572 3572 0 0 1 21.795 6.926q2.448.783 4.897 1.56c13.171 4.176 26.344 8.493 38.03 16.05l2.025 1.301C206.442 222.446 213.127 230.155 219 242l1.09 2.113c7.168 16.085 4.95 38.96-.84 54.946-7.381 17.369-20.558 28.617-37.675 35.997-5.086 1.865-10.356 2.97-15.637 4.132l-3.432.787c-9.417 2.122-18.309 3.183-27.943 3.228l-3 .021c-3.187.018-6.375.024-9.563.026l-3.29.002c-15.473-.015-30.47-.372-45.71-3.252l-3.023-.52C36.74 333.74 36.74 333.74 26 323a76 76 0 0 1-.114-4.703v-3.034l.016-3.298.005-3.359c.005-3.556.018-7.112.03-10.668q.009-3.608.014-7.213.017-8.863.049-17.725h4l.883 1.941C36.546 286.892 43.469 292.05 55 298l2.723 1.441c29.636 14.612 70.683 16.246 102.105 7.493 10.2-3.528 17.227-9.505 22.86-18.684 3.869-9.58 3.697-22.58.312-32.25-4.828-9.92-12.538-14.69-22.312-19.187l-2.686-1.288c-5.007-2.348-9.951-4.238-15.27-5.74-3.17-.911-6.3-1.924-9.435-2.95l-3.677-1.198-1.91-.623c-8.969-2.924-17.941-5.818-26.987-8.494a1442 1442 0 0 0-11.573-3.387A177 177 0 0 1 67 205l-3.096-1.367c-16.518-7.474-27.433-18.79-34.681-35.356-5.782-15.496-4.98-35.857 1.593-50.98 1.971-3.824 4.42-7.016 7.184-10.297l1.86-2.402C54.69 86.505 77.838 81.538 100 79l3.121-.398c31.6-3.394 65.29.326 95.55 9.699" fill="#f3e91a"/>
  <path d="M375.964 59.95c8.24-.082 16.479-.148 24.718-.182q3.51-.018 7.022-.051c24.162-.225 53.33.18 72.296 17.283l2.379 2.055c14.356 13.263 20.937 32.27 21.726 51.506.637 22.96-.89 49.048-17.438 66.876-5.82 5.953-11.974 11.212-19.667 14.563l-2.367 1.04c-5.818 2.316-11.792 3.816-17.883 5.21l-2.293.531c-4.59 1-8.76 1.393-13.457 1.219 3.887 5.923 7.8 11.793 12 17.5a274 274 0 0 1 8 11.5c2.48 3.756 5.017 7.44 7.687 11.063 4.34 5.9 8.457 11.945 12.576 18 3.488 5.124 7.021 10.205 10.663 15.222C483 295 483 295 483 297l3 1a105 105 0 0 1 3.312 5c6.156 8.77 15.21 13.39 24.688 18l-1 3c-6.298.229-12.595.386-18.896.494q-3.213.069-6.425.185c-3.084.11-6.164.16-9.25.2l-2.888.14c-2.784.003-4.908-.104-7.541-1.019-2.642-2.7-4.273-5.666-6-9a146 146 0 0 0-2.535-3.746c-.616-.9-.616-.9-1.243-1.82l-1.285-1.871c-.46-.673-.922-1.345-1.397-2.038-4.22-6.122-8.59-12.131-12.968-18.141a248 248 0 0 1-10.095-15.071c-1.864-2.919-3.929-5.642-6.036-8.387-1.432-1.913-2.756-3.865-4.066-5.863-3.613-5.497-7.433-10.846-11.237-16.211l-1.529-2.157-1.376-1.937c-3.032-4.322-3.59-7.217-3.717-12.383l-.073-2.252q-.073-2.355-.131-4.71a743 743 0 0 0-.23-7.21l-.129-4.578-.078-2.178c-.077-3.742-.011-5.242 2.125-8.447 2.95-.223 2.95-.223 6.687-.062 15.721.336 33.521-1.727 46.063-12.125 4.636-4.716 7.107-9.613 9.25-15.813l1.184-3.004c6.343-18.239 3.976-39.246-3.997-56.558-4.539-8.253-9.161-12.299-17.75-16.25l-1.872-.88c-12.65-5.382-26.996-4.57-40.456-4.468l-5.642.016q-7.358.021-14.714.065-11.836.063-23.673.096-4.126.017-8.253.045l-5.02.02-2.32.02c-5.26.012-5.26.012-7.487-1.102v133l-4 1c-7.313-9.257-14.551-18.506-21.133-28.3-1.753-2.717-1.753-2.717-3.952-4.743-2.772-4.28-2.472-7.962-2.43-12.96l-.02-3.042c-.02-3.316-.012-6.631-.004-9.947q-.015-3.462-.036-6.924c-.032-6.076-.043-12.153-.047-18.23-.008-9.72-.044-19.438-.092-29.158-.012-3.391-.012-6.783-.01-10.175l-.02-6.259.012-2.847c-.032-5.18-.445-9.542-2.268-14.415-1.807-1.416-1.807-1.416-4-2l-2.043-.965C292.734 67.666 287.474 65.708 282 64v-3a28974 28974 0 0 1 93.964-1.05" fill="#f3e81a"/>
  <path d="M375.964 59.95c8.24-.082 16.479-.148 24.718-.182q3.51-.018 7.022-.051c24.162-.225 53.33.18 72.296 17.283l2.379 2.055c14.356 13.263 20.937 32.27 21.726 51.506.637 22.96-.89 49.048-17.438 66.876-5.82 5.953-11.974 11.212-19.667 14.563l-2.367 1.04c-5.818 2.316-11.792 3.816-17.883 5.21l-2.293.531c-4.59 1-8.76 1.393-13.457 1.219q1.904 2.876 3.812 5.75l2.145 3.234c1.923 2.943 1.923 2.943 3.867 5.22L442 236l-1 3c-2-1.25-2-1.25-4-3v-4l-2.688-.062c-4.081-1.156-5.184-2.61-7.398-6.094-1.236-2.493-1.52-4.12-.914-6.844 1.826-2.617 2.94-2.988 6.117-3.625l3.758-.375c9.42-1.065 18.726-2.359 27.125-7h3v-2l1.863-.734c5.977-2.462 5.977-2.462 10.137-7.266l1.914-.777c2.898-1.699 3.409-3.58 4.648-6.66 2.565-6.315 2.565-6.315 5.438-8.563h2l2-10h2c-.03-1.887-.03-1.887-.063-3.812-.008-5.433.498-10.789 1.063-16.188h2c.599-25.059.599-25.059-5.781-49.062C492 100 492 100 491.094 96.688L490 94c-1.933-.721-1.933-.721-4-1-1.527-1.523-1.527-1.523-2.938-3.375-2.42-3.01-4.695-4.7-8.062-6.625l-1-3-1.813-.375c-2.187-.625-2.187-.625-4-3-2.824-3.39-5.082-4.105-9.187-5.625l-2-1v-2l-3.375.063C450 68 450 68 448 67c-7.474-1.085-14.872-1.17-22.414-1.205l-3.994-.03a5674 5674 0 0 0-10.765-.068q-5.64-.035-11.279-.076-10.66-.074-21.323-.138a34034 34034 0 0 1-24.29-.16Q328.968 65.153 304 65a273 273 0 0 0 1.75 4.875l.984 2.742c1.436 2.703 2.44 3.35 5.266 4.383l-.063 2.75c-.064 3.061-.064 3.061.56 5.206.878 3.566.623 7.243.6 10.896 0 .893-.002 1.786-.004 2.706q-.006 2.905-.018 5.811-.019 4.596-.024 9.19-.018 9.751-.051 19.504-.037 11.303-.056 22.607-.01 4.533-.032 9.066l-.01 5.542-.015 2.555c0 3.315.057 6 1.113 9.167-.438 2.688-.438 2.688-1 5l1.742.684c2.886 1.682 4.372 3.722 6.383 6.379 2.484 3.508 2.484 3.508 5.875 5.937v2h2l1.375 2.938c1.283 3.133 1.283 3.133 3.625 4.062l-1.063-1.75c-1.093-2.624-.928-3.639.063-6.25l1-1c.124-2.239.178-4.481.205-6.723l.03-2.128q.047-3.498.081-6.997l.063-4.838q.082-6.38.153-12.76.077-6.504.161-13.01.162-12.771.307-25.544c2.812 2.812 2.276 4.626 2.319 8.567l.03 2.046c.031 2.245.048 4.49.065 6.735q.028 2.355.059 4.712c.051 4.154.09 8.308.128 12.463.04 4.162.091 8.325.141 12.487.171 14.664.283 29.325.258 43.99l-4 1c-7.313-9.257-14.551-18.506-21.133-28.3-1.753-2.717-1.753-2.717-3.952-4.743-2.772-4.28-2.472-7.962-2.43-12.96l-.02-3.042c-.02-3.316-.012-6.631-.004-9.947q-.015-3.462-.036-6.924c-.032-6.076-.043-12.153-.047-18.23-.008-9.72-.044-19.438-.092-29.158-.012-3.391-.012-6.783-.01-10.175l-.02-6.259.012-2.847c-.032-5.18-.445-9.542-2.268-14.415-1.807-1.416-1.807-1.416-4-2l-2.043-.965C292.734 67.666 287.474 65.708 282 64v-3a28974 28974 0 0 1 93.964-1.05" fill="#f3ea44"/>
  <path d="M365 94q10.875-.07 21.749-.104 5.05-.014 10.099-.047c3.87-.024 7.74-.035 11.609-.044l3.665-.032h3.397l2.994-.014C421 94 421 94 424 96v2l-2.746.7c-12.619 2.844-12.619 2.844-21.822 10.983-1.525 3.532-1.92 6.1-2.11 9.927l-.1 1.95c-.408 8.887-.37 17.786-.367 26.679l-.01 5.978q-.014 8.051-.012 16.102l-.006 10.082q-.013 17.614-.012 35.23-.001 16.377-.026 32.755-.019 14.106-.018 28.212.002 8.406-.013 16.812-.014 7.9-.003 15.801.003 2.887-.007 5.776c-.806 16.72-.806 16.72 4.264 32.025 4.052 2.696 8.207 4.249 12.8 5.8l2.678.944q3.249 1.14 6.51 2.244l-1 3c-3.623.816-7.055 1.173-10.765 1.288l-3.44.107q-6.738.165-13.478.257a476 476 0 0 0-10.208.233c-3.938.137-7.875.183-11.816.224l-3.672.163c-5.085-.01-8.302-.03-12.106-3.614-2.066-2.804-3.817-5.62-5.515-8.658a696 696 0 0 0-3.312-5.187l-1.68-2.696c-3.022-4.692-6.23-9.254-9.453-13.811C333 322.216 333 322.216 333 320l4 1 .313 1.875c.562 2.49.562 2.49 3.687 4.125v2l4 2v4h3l.715 2.645c1.432 3.738 3.23 6.03 5.848 9.043 4.34 5.02 4.34 5.02 5.437 8.312l-1 2 43-1 1-3-5-1v-3l-1.923-.688C394 347 394 347 393.18 344.814c-1.376-9.307-1.454-18.476-1.41-27.86v-5.225q.003-5.462.024-10.923c.017-4.592.02-9.184.02-13.776.001-19.033.125-38.02 1.186-57.03h1l-.001-1.83q-.011-22.1.081-44.199c.03-7.125.048-14.25.04-21.374q-.012-9.32.046-18.641.032-4.93.014-9.86c-.012-3.68.013-7.358.047-11.037l-.037-3.263c.122-7.45 1.876-13.076 6.81-18.796 2.704-1.777 2.704-1.777 5-3q-7.208-.037-14.417-.055-2.452-.008-4.906-.02a2153 2153 0 0 0-7.044-.023l-2.223-.015c-3.831-.07-3.831-.07-7.41 1.113l1 225c-8 0-8 0-9.988-1.758l-1.325-2.367-1.449-2.496A372 372 0 0 1 354 309c-2.358-3.88-4.397-6.327-8-9-1.562-2.375-1.562-2.375-3-5-1.535-2.67-3.044-5.053-5-7.437-2.639-3.381-4.66-6.7-5.437-10.958-.598-2.765-1.518-4.817-2.875-7.293-.41-.766-.818-1.533-1.239-2.324-1.304-2.113-1.304-2.113-3.484-2.988-2.608-1.327-3.017-2.63-4.09-5.312l-.992-2.422L319 254l-1.25-3.062L317 249l2-1c3.884 5.377 7.556 10.83 11 16.5a224 224 0 0 0 9.152 13.84c2.201 3.168 4.277 6.406 6.348 9.66a345 345 0 0 0 9.8 14.547c2.517 3.633 4.868 7.365 7.22 11.105 1.134 1.8 2.3 3.578 3.48 5.348q.07-38.076.104-76.153.014-17.683.047-35.366.03-15.43.037-30.86.003-8.155.023-16.309c.18-31.312.18-31.312-2.144-62.516C364 96 364 96 365 94" fill="#d8cf4c"/>
  <path d="M395 121h1a114139 114139 0 0 1 .555 69.127c.501 62.82.501 62.82.441 90.494l-.005 2.79c-.017 8.236-.042 16.473-.101 24.71-.02 2.867-.03 5.735-.04 8.603-.01 1.866-.03 3.732-.051 5.598-.232 12.931-.232 12.931 4.213 24.69 4.052 2.696 8.207 4.249 12.8 5.8l2.678.944q3.249 1.14 6.51 2.244l-1 3c-3.623.816-7.055 1.173-10.765 1.288l-3.44.107q-6.738.165-13.478.257a476 476 0 0 0-10.208.233c-3.938.137-7.875.183-11.816.224l-3.672.163c-5.085-.01-8.302-.03-12.106-3.614-2.066-2.804-3.817-5.62-5.515-8.658a696 696 0 0 0-3.312-5.187l-1.68-2.696c-3.022-4.692-6.23-9.254-9.453-13.811C333 322.216 333 322.216 333 320l4 1 .313 1.875c.562 2.49.562 2.49 3.687 4.125v2l4 2v4h3l.715 2.645c1.432 3.738 3.23 6.03 5.848 9.043 4.34 5.02 4.34 5.02 5.437 8.312l-1 2 43-1 1-3-5-1v-3l-1.923-.688C394 347 394 347 393.18 344.814c-1.376-9.307-1.454-18.476-1.41-27.86v-5.225q.003-5.462.024-10.923c.017-4.592.02-9.184.02-13.776.001-19.033.125-38.02 1.186-57.03h1z" fill="#f3e64d"/>
  <path d="m27 272 3 1c.688 2.063.688 2.063 1 4l-4-1 1 46c3.099 1.55 4.95 2.3 8.188 2.938L40 326l1 3c2.89.964 2.89.964 6.313 1.563 6.354 1.26 6.354 1.26 8.575 2.446 2.46 1.154 4.402 1.378 7.107 1.585l3.026.242 3.276.234 3.423.262c3.676.275 7.353.536 11.03.793l3.77.27c14.76 1.046 29.492 1.978 44.293 1.98l3.72.004c6.734-.085 12.912-.898 19.467-2.379a401 401 0 0 1 6.5-.937c12.86-1.994 23.683-6.852 34.5-14.063v2l3-2h3v-3l3 1c-10.557 11.613-24.15 17.007-39.187 20.25l-3.405.773c-9.378 2.093-18.255 3.135-27.845 3.18l-3 .021q-4.78.025-9.563.026l-3.29.002c-15.473-.015-30.47-.372-45.71-3.252l-3.023-.52C36.74 333.74 36.74 333.74 26 323a76 76 0 0 1-.13-4.687l-.009-3.024.006-3.289-.003-3.352q0-3.515.006-7.03.005-5.403-.007-10.805 0-3.407.004-6.813l-.006-3.29.01-3.022.002-2.676C26 273 26 273 27 272" fill="#f1e836"/>
  <path d="M218 382c2.786 2.427 3.757 5.558 5 9l.84-1.715 1.097-2.223 1.09-2.214C227 383 227 383 228 382c1.497-.098 3-.13 4.5-.125l2.469-.008C237 382 237 382 238 383c.04 2 .043 4 0 6h-2q.21 3.469.438 6.938c.08 1.287.162 2.575.246 3.902-.035 3.02-.035 3.02 1.316 4.16.125 3 .125 3 0 6-1 1-1 1-3.469 1.133l-3.031-.008-3.031.008C226 411 226 411 225 410a100 100 0 0 1 0-5h-4l.063 2.438C221 410 221 410 220 411c-1.998.099-4 .13-6 .125l-3.312.008C208 411 208 411 207 410a100 100 0 0 1 0-5l3-1a790 790 0 0 0-.375-6.875c-.07-1.276-.14-2.552-.21-3.867-.087-3.339-.087-3.339-2.415-5.258-.125-2.625-.125-2.625 0-5 3.446-1.723 7.232-1.499 11-1" fill="#e2da46"/>
  <path d="m380.168 96.805 2.408.008c2.538.011 5.074.037 7.611.062q2.582.016 5.163.027 6.325.035 12.65.098l-2.402 1.918c-4.962 3.977-9.026 8.155-9.977 14.686-.152 3.166-.181 6.312-.167 9.482l-.031 3.638c-.025 3.275-.031 6.549-.03 9.823-.004 3.429-.03 6.857-.052 10.286-.041 6.484-.061 12.969-.074 19.453a6713 6713 0 0 1-.095 22.157Q395.05 211.222 395 234h-1l-1 20h-1q-.106-26.952-.155-53.904c-.016-8.343-.037-16.686-.071-25.03q-.046-10.911-.056-21.824c-.004-3.85-.013-7.699-.035-11.548q-.03-5.443-.022-10.886a744 744 0 0 0-.034-5.867c.024-6.983.738-12.457 3.373-18.941h2l1-6h-26l-1 220h-1q-.301-43.17-.547-86.34c-.076-13.363-.157-26.725-.252-40.088a17523 17523 0 0 1-.214-34.928q-.047-9.252-.119-18.504-.07-8.7-.1-17.4-.017-3.2-.048-6.402c-.028-2.902-.038-5.805-.043-8.707l-.038-2.589c.007-2.344.007-2.344.361-6.042 3.788-2.526 6.785-2.254 11.168-2.195" fill="#f3e932"/>
  <path d="M164 236c7.432-.14 11.174 3.013 16.777 7.676 2.15 2.249 2.897 3.29 3.223 6.324h2c4.474 6.266 4.681 11.747 4.813 19.313l.115 3.322c.233 8.043.233 8.043-.928 10.365h-2l-.516 2.23c-1.37 5.519-2.511 9.532-6.484 13.77l-1 3h-2l-1 3c-1.812 1.098-1.812 1.098-4 2.063-3.151 1.26-3.151 1.26-5 3.937-2.906.598-2.906.598-6.5 1.063-4.074.201-4.074.201-7.5 1.937-3.055.233-6.092.405-9.152.535l-2.816.13q-2.965.135-5.93.265c-2.996.13-5.991.269-8.987.408l-5.767.26c-.886.04-1.772.08-2.685.123-12.922.555-12.922.555-17.663.279l-1-1c-3.722-.248-7.44-.384-11.168-.523-3.915-.487-6.447-1.508-9.832-3.477l1-3 13.184 1.465 2.44.266q2.251.254 4.496.55c21.438 2.738 52.641 4.12 71.306-8.984 6.47-5.442 12.138-11.775 13.262-20.422.98-12.122 1.119-22.92-6.688-32.875-4.376-4.633-9.24-7.372-15-10z" fill="#c7c243"/>
  <path d="m425 383 2-1c1.852-.096 3.708-.13 5.563-.125l3.003-.008C438 382 438 382 439 383c.188 2.438.188 2.438 0 5l-2 2c-.228 1.89-.228 1.89-.09 4.027l.06 2.4q.093 2.505.196 5.009l.057 2.404.086 2.199c-.403 2.555-1.288 3.398-3.309 4.961-2.48.469-2.48.469-5 0-1.8-1.969-1.8-1.969-3.312-4.5l-1.551-2.531L423 402l1.125 2.813L425 408l-2 3c-2.566.328-2.566.328-5.562.25-.992-.015-1.983-.03-3.004-.047C412 411 412 411 411 410c-.216-2.666-.306-4.442.996-6.816 1.254-2.728 1.27-4.818 1.254-7.809l.016-2.914c-.025-2.638-.025-2.638-2.266-4.461-.125-2.625-.125-2.625 0-5 4.25-2.125 9.551-1.198 14 0m-1 3 1 2Zm2 4 2 2v-2z" fill="#ede23f"/>
  <path d="m34 112 2 3-2 3h-2l-.148 1.977-.227 2.648c-.07.859-.14 1.717-.21 2.602C31 128 31 128 29.995 130.629c-4.018 13.598-1.793 28.852 4.277 41.398 1.402 3.039 1.402 3.039 3.727 3.973v2h2v2h2c1.508 1.645 1.508 1.645 3.125 3.813l1.633 2.144C48 188 48 188 48 191l2 .188c4.56 1.234 9.106 3.727 12.315 7.26 2.038 1.877 3.946 2.698 6.51 3.743l2.868 1.174 2.995 1.197 2.935 1.21c5.42 2.195 10.673 3.946 16.377 5.228q3.003.802 6 1.625c.949.26 1.897.52 2.875.79L105 214l-2-2 9 2v2l3.504.348c4.344.544 8.295 1.697 12.433 3.09 4.394 1.435 8.707 2.795 13.25 3.687 4.665 1.07 7.484 2.46 10.75 5.938 2.519 2.365 4.782 2.96 8.063 3.937l3 2v2a111 111 0 0 1-11.437-4.375c-4.428-1.866-8.768-3.284-13.426-4.453-8.412-2.17-16.638-4.832-24.887-7.547l-8.984-2.934-2.19-.716A1214 1214 0 0 0 85 211.563c-6.124-1.92-12.142-3.928-18-6.563l-2.77-1.191C46.496 195.65 34.852 183.368 28 165c-4.44-15.956-3.236-35.104 4-50z" fill="#cec740"/>
  <path d="M424 83c9.868-.16 17.861-.101 26.676 4.742 2.045 1.107 4.024 1.951 6.199 2.758 6.077 2.917 8.13 8.25 10.879 14.098 1.223 2.358 2.607 4.318 4.246 6.402 2.37 3.512 3 4.625 3 9l2 1q-.141 8.057-.317 16.113-.057 2.735-.105 5.47c-.327 18.65-.327 18.65-2.578 27.417h-2l-.793 2.215C468.592 178.249 463.683 184.62 458 188c-2.145-.414-2.145-.414-4-1l1.54-1.11c6.35-4.995 9.456-10.46 12.46-17.89l1.258-3.078c6.285-18.195 3.873-39.235-4.07-56.484-4.54-8.253-9.162-12.299-17.75-16.25l-1.873-.88c-12.341-5.25-26.49-4.634-39.65-4.722q-2.695-.028-5.389-.059-7.018-.073-14.036-.128c-4.793-.04-9.587-.091-14.38-.141Q358.054 86.115 344 86v-1h80z" fill="#b7b43b"/>
  <path d="M174 205c16.51 4.89 32.824 14.944 41.5 30.125 1.22 2.27 2.364 4.56 3.5 6.875l1.086 2.11c7.186 16.08 4.934 38.943-.824 54.933-3.354 7.86-7.099 15.065-14.262 19.957.99-4.836 1.957-9.476 4-14h1l.875-2.875C212 299 212 299 214 297c.677-2.197.677-2.197 1.125-4.625l.508-2.477L216 288h2q-.106-6.775-.262-13.55a698 698 0 0 1-.084-4.596c-.173-11.223-1.395-20.635-6.341-30.854-2.313-4.802-2.313-4.802-2.313-7l-2-1a110 110 0 0 1-3.312-3.25l-1.895-1.914a494 494 0 0 1-4.293-4.461c-5.83-5.538-11.412-8.342-18.926-11.066-2.934-1.492-3.3-2.396-4.574-5.309" fill="#ece644"/>
  <path d="m84.723 381.902 3.34.036 3.347.027L94 382q.061 3.5 0 7l-1 1a77 77 0 0 0-.125 4.875l-.008 2.68c.033 2.584.033 2.584 1.133 5.445h3c.054-2.27.093-4.542.125-6.812l.07-3.833c.08-3.489.08-3.489-2.195-6.355l1-4h13v6l-1 1a203 203 0 0 0-.375 6.125c-.386 5.333-.788 9.316-3.625 13.875-3.87 2.544-8.487 2.707-13 2-3.634-1.75-5.464-3-7.375-6.562-.742-4.084-.68-7.91-.5-12.047.133-2.58.133-2.58-2.125-4.391-.187-2.562-.187-2.562 0-5 1-1 1-1 3.723-1.098" fill="#eade54"/>
  <path d="M383 60q9.25-.113 18.5-.165 3.131-.022 6.262-.061C431.903 59.477 461.05 59.909 480 77l2.379 2.055c14.365 13.271 20.89 32.286 21.734 51.527.01 1.806-.042 3.613-.113 5.418-1.91-.914-1.91-.914-4-3-.853-3.075-1.112-6.206-1.437-9.375-1.072-8.623-3.098-15.642-6.563-23.625-.298-1.085-.596-2.17-.902-3.29L490 94c-1.933-.721-1.933-.721-4-1-1.527-1.523-1.527-1.523-2.937-3.375-2.42-3.01-4.696-4.7-8.063-6.625l-1-3-1.812-.375c-2.188-.625-2.188-.625-4-3-2.825-3.39-5.083-4.105-9.188-5.625l-2-1v-2l-3.375.063C450 68 450 68 448 67c-1.537-.225-3.08-.408-4.625-.562l-2.477-.254L439 66v-1l-31-2v-1l-25-1z" fill="#f1e73e"/>
  <path d="M476 383.125c1.579 2.96 1.235 5.588 1 8.875l-1 3 1 2.25c1.359 3.737 1.107 5.945 0 9.75-3.31 3.227-6.044 4.256-10.562 4.438-4.299-.189-7.342-1.342-10.438-4.438-.47-5.412-.47-5.412 1.5-7.875L459 398l-1.5-1.625c-1.954-3.094-2.015-4.769-1.5-8.375 1.908-3.23 3.394-4.697 6.75-6.375 4.657-.896 8.984-.9 13.25 1.5M465 390l4 1Zm-1 10v3l4 1v-3z" fill="#d3cb44"/>
  <path d="M387 382c3.979 2.268 6.545 4.635 8 9 .504 5.267.626 9.651-1.625 14.5-3.67 3.863-7.07 5.624-12.375 5.938-4.219-.162-6.751-1.73-10-4.438-2.6-3.901-3.361-7.354-2.719-12.059.925-4.077 2.15-7.58 4.719-10.941 4.438-2.715 8.947-2.907 14-2m-9 9a87 87 0 0 0-.187 5.438l-.043 2.996c-.032 2.732-.032 2.732 2.23 4.566 3.307-.29 3.307-.29 6-2 .099-1.456.13-2.916.125-4.375l.008-2.398c-.047-2.4-.047-2.4-1.133-5.227-3.806-.438-3.806-.438-7 1" fill="#c9bf39"/>
  <path d="M181 119h1l.076 3.557q.143 6.623.296 13.246.065 2.85.125 5.7C182.3 159.426 182.3 159.426 185 177l2-2 1 4h2l.563 2.938c1.449 5.135 4.774 9.26 8.437 13.062l3 1 3 5 3 1v-68h6l.25 1.875c.531 2.3.531 2.3 2.688 3.063C219 140 219 140 220.188 142.188c.94 3.254 1.417 6.451 1.812 9.812-4.043-3.812-6.665-7.33-10-12l-1 71-4 1-1.766-2.5a833 833 0 0 0-16.122-21.992l-1.448-1.914-1.267-1.666L185 182l-2.142-2.409c-3.223-4.912-2.344-11.007-2.249-16.646l.018-3.808c.018-3.324.054-6.648.098-9.972.041-3.399.06-6.797.08-10.196q.067-9.985.195-19.969" fill="#eae245"/>
  <path d="M183 382c3.977 2.275 6.544 4.632 8 9 .388 4.82.618 9.386-1.125 13.938-3.451 3.796-6.662 6.273-11.875 6.562-5.213-.289-8.424-2.766-11.875-6.562-1.77-4.623-1.777-9.057-1.125-13.938 3.986-7.973 9.315-10.678 18-9m-8 8c-1.976 2.79-2.103 4.833-1.75 8.125.374 3.873.374 3.873 2.75 5.875 2.547-.01 2.547-.01 5-1 1.753-1.992 2.023-3.379 1.926-6.008-.167-3.814-.167-3.814-1.926-6.992-2-.04-4-.043-6 0" fill="#eadd48"/>
  <path d="M51.938 381.563 55 382c2.94 3.959 4.424 8.523 6.063 13.125 2.012 5.649 2.012 5.649 4.937 10.875-.375 2.688-.375 2.688-1 5q-2.686.118-5.375.188l-3.023.105L54 411c-2-3-2-3-1.625-5.687L53 403h-3l1 7c-2.501 1.25-4.274 1.133-7.062 1.125l-2.723.008C39 411 39 411 38 410c-.332-2.986-.263-4.57 1.324-7.16 2.466-4.179 3.901-8.66 5.514-13.22 2.677-7.399 2.677-7.399 7.1-8.058" fill="#efe744"/>
  <path d="M266 382c2.938-.5 2.938-.5 6 0 3.454 4.544 4.612 9.97 6.105 15.38 1.29 4.586 1.29 4.586 4.895 7.62-.875 4.875-.875 4.875-2 6-1.642.125-3.29.176-4.937.188l-2.715.042C271 411 271 411 269 409c-.125-2.625-.125-2.625 0-5-1.158 2.947-1.158 2.947-1 6-2.525 1.262-4.312 1.099-7.125 1.063l-2.758-.028L256 411l-2-5 1.805-1.465c2.938-3.393 3.97-6.868 5.32-11.098a955 955 0 0 1 1.508-4.566c.215-.67.43-1.342.653-2.033C264 385 264 385 266 382" fill="#efe43b"/>
  <path d="M474 283a210 210 0 0 1 6.75 8.688l1.297 1.761C483 295 483 295 483 297l3 1a105 105 0 0 1 3.313 5c6.155 8.77 15.21 13.39 24.687 18l-1 3c-6.298.229-12.595.386-18.896.494q-3.213.068-6.425.185c-3.084.11-6.164.16-9.25.2l-2.888.14c-2.783.003-4.909-.106-7.541-1.019-2.644-2.697-4.256-5.677-6-9a179 179 0 0 0-2.992-4.309l-1.445-2.072q-1.47-2.1-2.946-4.195l-1.422-2.045-1.28-1.826C451 299 451 299 451 297h3l1 2h3c1.688 1.25 1.688 1.25 3 3v4l2 1c1.543 3.267 2.391 6.448 3 10h2v2h32l-6-4c-6.339-4.966-11.53-9.051-13.387-17.09-.954-2.973-3.106-4.216-5.613-5.91v-2h-2c-.625-1.812-.625-1.812-1-4z" fill="#ede44b"/>
  <path d="m128.23 381.757 2.743.013 2.974.005 3.116.037 3.126.002c7.67.046 7.67.046 8.811 1.186.188 3.437.188 3.437 0 7-2 2-2 2-4.625 2.125L142 392l.035 2.117.028 2.758.035 2.742C142 402 142 402 141 404l3 1c-.375 2.437-.375 2.437-1 5-2.501 1.25-4.274 1.133-7.062 1.125l-2.723.008C131 411 131 411 130 410c-.125-2.5-.125-2.5 0-5l1-1c.073-2.186.084-4.375.063-6.563l-.028-3.628L131 391l-2.375.625L126 392c-2-2-2-2-2.25-5 .297-3.56.8-4.842 4.48-5.243" fill="#efe440"/>
  <path d="m304.875 381.867 2.984-.004 3.141.012 3.14-.012 2.985.004 2.758.004C322 382 322 382 323 383c.072 1.52.084 3.042.063 4.563l-.028 2.503L323 392h-6a963 963 0 0 0-.062 5.688l-.036 3.199c-.002 3.08-.002 3.08.727 5.883L318 409c-2.52 2.52-3.515 2.297-7 2.313l-2.687.05L306 411c-2.567-3.85-1.796-6.314-1.062-10.625.4-2.458.752-4.903 1.062-7.375l-1-1h-5c-1-1-1-1-1.133-2.812l.008-2.188-.008-2.187c.276-3.769 2.813-2.942 6.008-2.946" fill="#ddd457"/>
  <path d="m333 320 4 1 .313 1.875c.562 2.49.562 2.49 3.687 4.125v2l4 2v4h3l.715 2.645c1.432 3.738 3.23 6.03 5.848 9.043 4.34 5.02 4.34 5.02 5.437 8.312l-1 2 43-1 1-3-5-1-.375-2.25c-.48-2.685-.48-2.685-1.648-4.633-1.114-2.414-1.245-4.096-1.227-6.742l-.016-2.352C395 334 395 334 397 332l.262 2.45.425 3.238.387 3.199c1.21 4.066 2.565 5.514 5.926 8.113 3.191 1.523 6.465 2.682 9.813 3.813l2.677.943q3.249 1.14 6.51 2.244l-1 3c-3.623.816-7.055 1.173-10.765 1.288l-3.44.107q-6.738.165-13.478.257a476 476 0 0 0-10.208.233c-3.938.137-7.875.183-11.816.224l-3.672.163c-5.085-.01-8.302-.03-12.106-3.614-2.066-2.804-3.817-5.62-5.515-8.658a696 696 0 0 0-3.312-5.187l-1.68-2.696c-3.022-4.692-6.23-9.254-9.453-13.811C333 322.216 333 322.216 333 320" fill="#cac545"/>
  <path d="M192.55 86.304q2.525.717 5.06 1.396c2.597.697 5.181 1.43 7.765 2.175l2.36.63c8.47 2.568 12.253 9.095 16.702 16.307A344 344 0 0 0 236 124l-1 2c-2.313.312-2.313.312-5 0-1.625-2.25-1.625-2.25-3-5l-1.688-2c-1.63-2.486-1.555-4.085-1.312-7h-2l-2-5h-2v-2h-2l-1-5h-3l-.207-1.898c-.59-2.3-.59-2.3-2.867-3.079l-2.614-.648-2.757-.719L201 93l-3.063-1.125c-3.936-1.173-7.855-1.53-11.937-1.875v-2l-1.871-.148C178.265 87.334 172.72 86.384 167 85v-2l-1.721-.076c-10.775-.48-21.532-.987-32.279-1.924 14.398-8.604 44.492 1.015 59.55 5.304" fill="#e8e552"/>
  <path d="M365 94q10.875-.07 21.749-.104 5.05-.014 10.099-.047c3.87-.024 7.74-.035 11.609-.044l3.665-.032h3.397l2.994-.014C421 94 421 94 424 96v2l-2.746.7c-12.594 2.9-12.594 2.9-21.95 10.972-1.477 3.77-1.856 7.205-1.991 11.203l-.104 2.086A431 431 0 0 0 397 128h-1c-.407-2.34-.734-4.643-1-7l-.277-2.34c-.46-7.1 1.683-12.23 6.277-17.66a151 151 0 0 1 5-3q-7.208-.037-14.417-.055-2.452-.008-4.906-.02a2153 2153 0 0 0-7.044-.023l-2.223-.015c-3.831-.07-3.831-.07-7.41 1.113l-1 21-3 1c-.363-4.124-.714-8.25-1.062-12.375l-.315-3.562-.283-3.399-.27-3.142C364 96 364 96 365 94" fill="#9d974b"/>
  <path d="M145.16 105.871c12.45-.36 23.625 1.77 34.84 7.129l5 2 1 63c-2-1-2-1-2.592-2.728-2.202-12.266-1.72-25.166-1.97-37.584l-.131-6.038q-.159-7.324-.307-14.65l-3.667-.43a97 97 0 0 1-9.661-1.691l-2.897-.644-3.025-.672c-10.88-2.357-21.656-3.74-32.75-4.563 4.89-3.26 10.411-2.786 16.16-3.129" fill="#f2ea3b"/>
  <path d="M128 107v1l-2.133.12c-13.681.808-26.75 1.736-39.867 5.88l-2.39.68c-8.038 2.563-14.851 7.316-19.172 14.57-3.84 7.908-4.254 16.23-2.438 24.75a69 69 0 0 0 3.16 6.238C66 162 66 162 66 165c-1.5-1.375-1.5-1.375-3-3v-2h-2c-4.12-4.672-3.631-10.543-3.812-16.437l-.155-3.104c-.2-5.254-.213-9.551 1.967-14.459h2c1.206-2.332 2.165-4.496 3-7a70 70 0 0 1 4-1l1-2c18.944-11.36 37.73-10.458 59-9" fill="#d3cc3c"/>
  <path d="M318 248c5.337 6.568 10.162 13.143 14.445 20.445 2.057 3.38 4.343 6.568 6.637 9.79 2.223 3.204 4.325 6.475 6.418 9.765 3.147 4.943 6.41 9.77 9.8 14.55 3.883 5.597 7.764 11.291 10.7 17.45l-3 1c-7-7-7-7-7.875-9.25-2.095-5.12-4.738-8.495-9.125-11.75-1.562-2.375-1.562-2.375-3-5-1.535-2.67-3.044-5.053-5-7.437-2.639-3.381-4.66-6.7-5.437-10.958-.598-2.765-1.518-4.817-2.875-7.293-.41-.766-.818-1.533-1.239-2.324-1.304-2.113-1.304-2.113-3.484-2.988-2.608-1.327-3.017-2.63-4.09-5.312l-.992-2.422L319 254l-1.25-3.062L317 249z" fill="#ede64a"/>
  <path d="m342.688 381.867 3.312.008 3.313-.008C352 382 352 382 353 383c.04 1.666.043 3.334 0 5l-3 1q.174 2.876.375 5.75c.07 1.067.14 2.135.21 3.234.393 2.855 1.062 4.528 2.415 7.016.125 2.75.125 2.75 0 5-2.623 1.312-4.637 1.133-7.562 1.125l-3.004.008C340 411 340 411 339 410c-.187-2.437-.187-2.437 0-5l2-2c.32-3.058.32-3.058.25-6.5l.016-3.531c.043-3.087.043-3.087-2.266-4.969-.187-2.562-.187-2.562 0-5 1-1 1-1 3.688-1.133" fill="#e9df44"/>
  <path d="M282 244c1.766.164 1.766.164 4 1 1.922 2.398 1.922 2.398 3.75 5.375.92 1.466.92 1.466 1.86 2.96C293 256 293 256 293 259l3 1c.688 2.063.688 2.063 1 4h2v3h3c3 4.222 3 4.222 3 7h2l.313 1.938L308 278l3 1 1 3 2 1c.93 1.707.93 1.707 1.875 3.813 1.626 3.39 3.313 5.647 6.125 8.187 2.43 2.617 3.226 4.697 3.938 8.125.41 2.075.41 2.075 1.062 3.875 1.968 1.36 1.968 1.36 4 2l1 3h2l-1 8a35.8 35.8 0 0 1-5.426-6.492l-1.393-2.105-1.493-2.278-3.227-4.879-1.708-2.59a3927 3927 0 0 0-8.94-13.469l-1.793-2.694a758 758 0 0 0-10.02-14.68c-3.044-4.36-5.837-8.793-8.516-13.383-2.213-3.623-4.682-7.053-7.164-10.496C282 245 282 245 282 244" fill="#d5d143"/>
  <path d="m341.709 81.876 2.483.01h2.601c2.852 0 5.703.009 8.555.016l5.914.005q7.8.006 15.6.024 7.953.014 15.906.02 15.615.016 31.232.049v3l-3.01.031q-14.038.147-28.075.308-7.216.084-14.434.158-6.964.072-13.927.156-2.658.031-5.315.056-3.72.037-7.441.086l-2.223.017c-3.36.049-6.332.347-9.575 1.188l-2-1-1 37h-1c-1.406-33.142-1.406-33.142-1-40 1.811-1.811 4.299-1.12 6.709-1.124" fill="#f3eb4e"/>
  <path d="M470 109c3.511 3.511 5 5.974 5 11l2 1q-.141 8.057-.317 16.113-.057 2.735-.105 5.47c-.327 18.65-.327 18.65-2.578 27.417h-2l-.793 2.215C468.592 178.249 463.683 184.62 458 188c-2.145-.414-2.145-.414-4-1l1.54-1.11c6.35-4.995 9.456-10.46 12.46-17.89l1.258-3.078c4.536-13.132 4.153-28.221 1.183-41.672-.585-2.983-.637-5.842-.566-8.875l.055-3.102z" fill="#efe33d"/>
  <path d="M334 81h9v1l-7 1v40h2v9l-2-2-1 70-2 1q-.035-23.025-.052-46.052-.007-10.692-.023-21.382-.016-10.31-.02-20.619-.003-3.941-.01-7.882a5257 5257 0 0 1-.009-11.006l-.01-3.322.004-3.017-.003-2.631C333 83 333 83 334 81" fill="#f5eb30"/>
  <path d="M307 81h1l1 8h1c1.22 9.936 1.146 19.845 1.133 29.836l.003 5.432q.002 5.661-.006 11.321-.006 7.248.004 14.496.005 5.595 0 11.19l.002 5.347q.003 3.729-.007 7.458l.007 2.216c-.016 3.694-.255 7.112-1.136 10.704-1.91-1.595-2.905-2.49-3.37-4.978l.01-2.293-.013-2.639.032-2.886v-3.045c.001-3.328.025-6.655.048-9.983q.009-3.458.013-6.915c.011-6.072.04-12.143.074-18.214.03-6.193.044-12.387.06-18.58q.05-18.234.146-36.467" fill="#aca124"/>
  <path d="M174 205c16.51 4.89 32.824 14.944 41.5 30.125 1.22 2.27 2.364 4.56 3.5 6.875l1.086 2.11c7.408 16.575 4.55 39.096-1.086 55.562-1 2.328-1 2.328-3 4.328v-5h2l-.625-2.625c-.432-3.885.312-5.714 1.625-9.375 1.96-8.085 2.251-15.9 2.125-24.187l-.027-3.463q-.036-4.176-.098-8.35h-2l-.687-2.375c-2.343-6.469-4.91-13.147-10.313-17.625q-1.972-1.715-3.937-3.437l-2.118-1.833c-1.56-1.388-3.048-2.86-4.507-4.355-5.745-5.597-11.381-8.353-18.864-11.066-2.934-1.492-3.3-2.396-4.574-5.309" fill="#b1aa3c"/>
  <path d="M247 142c3.518 3.236 6.095 6.893 8.688 10.875l1.315 1.995c3.298 5.014 6.52 10.077 9.742 15.14 2.893 4.51 6.014 8.813 9.2 13.119 2.414 3.373 4.687 6.82 6.93 10.309l1.156 1.792c1.82 2.856 3.536 5.7 4.969 8.77l-3 1-1.863-2.992-2.45-3.883-1.224-1.973c-1.963-3.095-3.376-5.094-6.463-7.152v-2h-2a157 157 0 0 1-3-5l-2.125-2.5C265 177 265 177 264.5 174.313L264 172a89 89 0 0 0-4-2c-1.562-2.312-1.562-2.312-3-5q-1.493-2.505-3-5l-1.57-2.64-1.555-2.61-1.57-2.64c-1.137-2.018-1.137-2.018-2.305-3.11q-.061-3.5 0-7" fill="#e6e048"/>
  <path d="m307 75 5 2-.062 2.75c-.065 3.061-.065 3.061.559 5.206.878 3.566.623 7.243.6 10.896 0 .893-.002 1.786-.004 2.706q-.006 2.905-.018 5.811-.019 4.596-.024 9.19-.018 9.751-.051 19.504-.037 11.303-.056 22.607-.01 4.533-.032 9.066l-.01 5.542-.015 2.555c0 3.315.057 6 1.113 9.167-.437 2.688-.437 2.688-1 5l2 1c-3 0-3 0-4.687-1.5L309 185l1-3c.091-2.632.126-5.236.114-7.868v-2.425c0-2.646-.009-5.292-.016-7.937l-.005-5.503q-.006-7.243-.024-14.485c-.012-5.793-.017-11.586-.023-17.378-.01-8.802-.029-17.603-.046-26.404l-1 78h-1z" fill="#f3e84a"/>
  <path d="M132 78v1l-12 1v1l-16 1v1l-3.07.367-4.055.508-2.016.238c-5.15.657-9.679 1.93-14.421 4.012-2.636.946-4.66 1.034-7.438.875v2c-5.321 1.083-10.635 2.153-16 3v2l-6 2-2-2c15.682-10.916 32.216-14.862 51-17l3.227-.398c9.543-.995 19.19-.687 28.773-.602" fill="#f2e644"/>
  <path d="m418 247 1 2c1.654.697 3.323 1.361 5 2l3 2v3h3l5 10h1l.875 2.813c1.012 3.285 1.012 3.285 3.125 6.187l3 1v3h3l.813 3.563c.712 2.892 1.588 5.534 2.812 8.25C451 294 451 294 451 297c-3.636-3.451-6.519-6.968-9.312-11.125a2050 2050 0 0 0-2.356-3.469l-1.181-1.738c-1.705-2.47-3.49-4.88-5.276-7.293-3.265-4.457-6.268-9.032-9.2-13.715-2.48-3.938-5.073-7.8-7.675-11.66z" fill="#f2e837"/>
  <path d="M31 278c2.419 2.419 3.946 4.405 5.813 7.188 4.8 6.241 11.302 9.358 18.187 12.812l2.895 1.469C64.698 302.736 71.752 304.937 79 307l-2 4a1010 1010 0 0 1-7.562-1.312l-2.135-.358c-4.805-.864-8.927-2.14-13.303-4.33l-1-2c-1.747-1.018-1.747-1.018-3.812-1.937-2.983-1.44-5.724-2.805-8.188-5.063v-2l-1.75-.187c-3.122-1.128-4.248-3.23-6.25-5.813l-3-1z" fill="#ded743"/>
  <path d="M164 236c7.432-.14 11.174 3.013 16.777 7.676 2.15 2.249 2.897 3.29 3.223 6.324h2c4.474 6.266 4.681 11.747 4.813 19.313l.115 3.322c.233 8.043.233 8.043-.928 10.365h-2l-2 8c-.855-3.42-1.097-5.695-1.027-9.14l.037-2.997q.053-3.09.117-6.18c.113-10.273-1.47-18.694-8.729-26.378-4.072-3.701-8.407-6.028-13.398-8.305z" fill="#f4ea39"/>
  <path d="M96 382h13v6l-1 1c-.21 2.121-.369 4.248-.5 6.375-.216 3.476-.398 6.318-1.5 9.625-4.716 1.572-8.14 2.519-13 1l4-1q.08-3.906.125-7.812c.017-.738.034-1.476.05-2.237.036-3.863.019-5.66-2.175-8.951z" fill="#eae050"/>
  <path d="m376.066 383.477 3.497.148 3.503.102C386 384 386 384 388 385v2h2q.291 4.155.563 8.313l.17 2.38.146 2.295.143 2.11C391 404 391 404 390 407c-3.586 1.578-8.157 1.473-12 1-2.5-1.5-2.5-1.5-4-3h3c3.597-.277 3.597-.277 7-2 3.178-5.197 3.352-10.222 2-16l-12 2 1 4q.32 2.62.563 5.25l.253 2.703L376 403h-4l-.875-2.437c-.858-2.696-.858-2.696-3.125-3.563 2.78-12.621 2.78-12.621 8.066-13.523" fill="#ede14d"/>
  <path d="m210 128 2 1v5h-4v68c-4.726-1.182-5.139-2.272-8-6l-2.437-1.812c-3.335-2.847-5.744-6.186-7.563-10.188l1-2 2.313 2.375c2.596 2.698 2.596 2.698 5.687 4.625v2l3 1 1 5 2-1 1-66h4z" fill="#f4ea34"/>
  <path d="M451 297h3l1 2h3c1.688 1.25 1.688 1.25 3 3v4l2 1c1.543 3.267 2.391 6.448 3 10h2v2h33v3c-6.884 2.052-13.46 2.532-20.625 2.688l-3.352.2c-7.9.148-7.9.148-10.925-2.644-1.56-2.344-2.827-4.733-4.098-7.244q-1.46-2.18-2.992-4.309l-1.445-2.072q-1.47-2.1-2.946-4.195l-1.422-2.045-1.28-1.826C451 299 451 299 451 297" fill="#f0eb48"/>
  <path d="M472.188 207.375 474 208c-8.522 5.302-17.524 8.03-27.25 10.25l-2.292.531c-4.59 1-8.762 1.393-13.458 1.219q1.904 2.876 3.813 5.75l2.144 3.234c1.923 2.943 1.923 2.943 3.867 5.22L442 236l-1 3c-2-1.25-2-1.25-4-3v-4l-2.687-.062c-4.082-1.156-5.185-2.61-7.399-6.094-1.236-2.493-1.52-4.12-.914-6.844 1.72-2.334 2.648-2.938 5.537-3.445l3.022-.11 3.36-.175q3.465-.143 6.93-.266c8.205-.444 20.814-8.747 27.339-7.629" fill="#d6d146"/>
  <path d="M289 204c5.547 7.33 10.656 14.959 15.734 22.617 4.343 6.514 8.818 12.94 13.266 19.383l-1 2c-2.437-.687-2.437-.687-5-2-.812-2.625-.812-2.625-1-5h-3l-1.312-2.875C305.207 234.8 305.207 234.8 302 233v-3h-2l-.25-1.875L299 226l-1.875-.875c-3.109-1.646-3.703-3.973-5.125-7.125l-1.687-2.312c-1.89-3.871-1.562-7.455-1.313-11.688" fill="#f2eb43"/>
  <path d="M137 79v1l30 3v2l3.875.375c5.111.56 10.101 1.545 15.125 2.625v2c-18.141-1.141-18.141-1.141-22-5a228 228 0 0 0-8.95-.559l-2.824-.128c-11.677-.479-23.354-.421-35.038-.376l-6.795.014Q102.196 83.968 94 84v-1l8-1v-1l17-1v-1q3.092-.293 6.188-.562l3.48-.317c3.018-.11 5.421.139 8.332.879" fill="#f1ea33"/>
  <path d="M282 61h77v1l-66 2 10 3 3 2c.512 2.602.512 2.602.688 5.625l.199 3.04L307 80c-2-3-2-3-2.375-5.062-.434-2.095-.434-2.095-2.402-2.938L300 71l-2.043-.965C292.734 67.666 287.474 65.708 282 64z" fill="#a39f4b"/>
  <path d="M396 332h1l.262 2.45.425 3.238.387 3.199c1.21 4.066 2.565 5.514 5.926 8.113 3.191 1.523 6.465 2.682 9.813 3.813l2.677.943q3.249 1.14 6.51 2.244l-1 3c-2.995.998-4.173 1.007-7.187.563L411 359v-2l-2 1c-3.062.087-6.102.115-9.164.098l-2.75-.005c-2.903-.005-5.807-.018-8.711-.03q-2.949-.009-5.898-.014-7.239-.017-14.477-.049v-1l34-1 1-3-5-1-.375-2.25c-.48-2.686-.48-2.686-1.652-4.633-1.115-2.426-1.21-4.086-1.16-6.742l.019-2.352C395 334 395 334 396 332" fill="#e9e150"/>
  <path d="M181 119h1l.076 3.557q.143 6.623.296 13.246.065 2.85.125 5.7C182.3 159.426 182.3 159.426 185 177l2-2 1 4h2l.563 2.938c1.449 5.135 4.774 9.26 8.437 13.062l3 1c2.703 3.499 4.75 6.51 5 11l-2 2-1.05-1.462c-6.337-8.811-12.686-17.604-19.243-26.253-2.965-3.969-3.956-5.923-3.934-10.858v-3.457l.032-3.732.008-3.82q.016-5.024.05-10.047c.02-3.419.03-6.837.04-10.256q.033-10.058.097-20.115" fill="#bdb958"/>
  <path d="M487 85c11.961 11.2 16.418 29.735 17.113 45.582.01 1.806-.042 3.613-.113 5.418-1.91-.914-1.91-.914-4-3-.853-3.075-1.112-6.206-1.437-9.375-1.072-8.623-3.098-15.642-6.563-23.625l-1.02-3.297L490 94c-2.032-.969-2.032-.969-4-1-.625-2.875-.625-2.875-1-6z" fill="#d9d449"/>
  <path d="M183 382c3.981 2.255 6.547 4.642 8 9a95 95 0 0 1 .188 5.5l.042 2.906C191 402 191 402 189 405c-2.013-7.297-2.013-7.297-1.937-11.375L187 391l-3-2 1 10h-2l-2-8c-2.916-.25-2.916-.25-6 0l-2 3c-2-3-2-3-2-6h-4c4.72-6.136 8.302-7.24 16-6" fill="#d9d04c"/>
  <path d="M49 97c-.563 3.941-1.68 6.75-4 10h-2l-1 3-1.875.688c-3.403 2.101-3.99 5.614-5.125 9.312h-2l-.184 1.758-.254 2.367c-.08.766-.162 1.531-.246 2.32a86 86 0 0 1-.832 5.297c-1.882 12.66-.62 24.214 3.516 36.258.717 2.657 1.358 5.324 2 8-5.79-4.955-8.45-13.42-9.335-20.795-.809-12.51-.33-25.427 4.335-37.205l1.637-1.605L35 115l-.18-2.262c.285-4.344 3.113-6.531 6.055-9.55l1.684-1.811C46.71 97 46.71 97 49 97" fill="#f0e74a"/>
  <path d="m103 212 9 2v2l3.504.348c4.344.544 8.295 1.697 12.433 3.09 4.394 1.435 8.707 2.795 13.25 3.687 4.665 1.07 7.484 2.46 10.75 5.938 2.519 2.365 4.782 2.96 8.063 3.937l3 2v2a111 111 0 0 1-11.437-4.375c-6.029-2.553-12.08-4.234-18.41-5.828C130 226 130 226 127 225v-3l-3.25-.75c-5.69-1.412-11.209-3.347-16.75-5.25v-2z" fill="#eee642"/>
  <path d="M51.875 381.625 55 382c2.947 3.95 4.425 8.526 6.063 13.125 2.012 5.649 2.012 5.649 4.937 10.875-.375 2.688-.375 2.688-1 5q-2.686.118-5.375.188l-3.023.105L54 411c-2-3-2-3-1.625-5.687L53 403h-3l-1 2-1-3c6.4-2.215 6.4-2.215 9.438-1.125L59 402l-.441-1.676c-.809-3.364-1.368-6.771-1.961-10.18L56 388l-2-1v-2h-5v2h-2c1.103-4.883 1.103-4.883 4.875-5.375" fill="#e7dc4c"/>
  <path d="m128.23 381.757 2.743.013 2.974.005 3.116.037 3.126.002c7.67.046 7.67.046 8.811 1.186q.061 3.5 0 7l-2-2v-4l-13 1 1 3a114 114 0 0 1-1 4c-.3 3.332-.507 6.665-.719 10.004C133 405 133 405 132 408c1.626-.114 3.25-.242 4.875-.375l2.742-.21c2.562-.21 2.562-.21 4.383-2.415-.375 2.437-.375 2.437-1 5-2.501 1.25-4.274 1.133-7.062 1.125l-2.723.008C131 411 131 411 130 410c-.125-2.5-.125-2.5 0-5l1-1c.073-2.186.084-4.375.063-6.563l-.028-3.628L131 391l-2.375.625L126 392c-2-2-2-2-2.25-5 .297-3.56.8-4.842 4.48-5.243" fill="#e0d150"/>
  <path d="M227 161c3.733.504 5.686.982 8 4 2.023 3.221 3.792 6.375 5 10h2v2h2l1.063 2.313c1.565 3.176 3.479 6.052 5.437 9 2.969 4.61 5.588 9.214 6.5 14.687l-1 3-1.006-1.601q-2.309-3.67-4.619-7.337l-1.582-2.517c-5.705-9.05-11.69-17.874-17.84-26.627-1.524-2.277-2.822-4.433-3.953-6.918" fill="#f0ea4a"/>
  <path d="m406 196 13 1v1l-12 1q.21 6.405.525 12.805.099 2.174.168 4.347c.323 11.041.323 11.041 5.962 20.313 1.822 2.08 2.135 3.806 2.22 6.535l.117 2.313L416 247a78 78 0 0 1-5-5l-1.558-1.657c-5.453-6.815-5.398-14.045-5.432-22.384-.01-2.35-.063-4.698-.123-7.049q-.04-2.247-.075-4.496l-.04-2.121c-.005-3.67.133-5.15 2.228-8.293" fill="#f7ed4c"/>
  <path d="m27 276 4 1 1 8h-2c.526 12.345 1.098 24.677 2 37h2v2l2 1c-3.375-.547-5.082-1.055-8-3-1.017-2.774-1.122-5.375-1.114-8.31v-2.547l.016-2.721.005-2.808c.005-2.955.018-5.91.03-8.864q.009-3.007.014-6.016.017-7.367.049-14.734" fill="#eade40"/>
  <path d="M215 385c2.917 1.459 4.798 3.624 7 6v2l3 1c.125 5.75.125 5.75-1 8-2.323.393-4.618.507-6.969.656L215 403l-1 2h-3c-.159-3.884-.02-6.931 1.063-10.687.884-3.126 1.113-4.374-.063-7.313z" fill="#e8e038"/>
  <path d="M128 107v1l-2.133.12c-13.703.81-26.716 1.808-39.867 5.88l-3.012.926a218 218 0 0 0-4.875 1.558c-2.428.593-4.623.603-7.113.516 13.348-15.572 38.821-11.246 57-10" fill="#f2ed45"/>
  <path d="M68 338c6.6-.128 13.162.059 19.75.438l2.146.118 2.088.128 1.835.11c1.775.168 3.541.424 5.301.706 4.67.602 9.267.73 13.97.816l2.862.063q4.492.097 8.986.183l6.119.131q7.47.16 14.943.307l-1 2c-54.759.666-54.759.666-77-4z" fill="#b7b551"/>
  <path d="M457 189c-1 3-1 3-2.766 4.148-2.387.91-4.443 1.253-6.984 1.477l-2.422.227L443 195v3c-10.9 2.534-21.832 3.227-33 3v-1l12-1-1-3 2.684-.227c8.427-.894 15.794-2.684 23.679-5.828 3.698-1.44 5.85-2.164 9.637-.945" fill="#f1e946"/>
  <path d="M336 162h1c1.039 19.009 1.114 37.971 1 57l-4 1a2632 2632 0 0 1-7-8.875l-2.023-2.55-1.914-2.442-1.778-2.254C320 202 320 202 320 200c3.175.34 4.023 1.025 6.25 3.438C328 206 328 206 328 208l2 1v4l6 1z" fill="#c79b3f"/>
  <path d="m383.984 60.121 3.581.072c3.728.075 7.457.16 11.185.245l7.64.158q9.306.192 18.61.404v1c-12.36.883-24.646 1.135-37.035 1.098l-5.577-.005a9489 9489 0 0 1-14.495-.024q-7.431-.014-14.864-.02Q338.515 63.033 324 63v-1l3.022-.076q5.637-.143 11.272-.296 2.424-.065 4.847-.125 3.516-.09 7.03-.187l2.133-.05c4.167-.119 8.286-.402 12.436-.793 6.437-.558 12.79-.508 19.244-.352" fill="#e7e569"/>
  <path d="m86.285 382.902 2.778.036 2.785.027L94 383c.235 4.82-.548 8.463-2 13h-1l-.402 2.117-.535 2.758-.528 2.742C89 406 89 406 88 408l-1-5h-2l-.184-3.14-.254-4.11-.119-2.066c-.211-3.35-.616-6.44-1.443-9.684 1-1 1-1 3.285-1.098" fill="#f4e34b"/>
  <path d="M210 136h1v75l-4 1v-2h2l-.007-2.586q-.03-12.072-.045-24.144a8385 8385 0 0 0-.023-12.413q-.016-5.991-.02-11.982-.003-2.284-.01-4.568-.01-3.203-.009-6.405l-.006-3.681A41 41 0 0 1 210 136" fill="#9e953a"/>
  <path d="m27 272 3 1c.688 2.063.688 2.063 1 4l-4-1 1 46c3.099 1.55 4.95 2.3 8.188 2.938L40 326l1 3c3.512 1.23 3.512 1.23 7 2v1l2.875.875C54 334 54 334 56 336c-6.93-.88-12.664-2.987-18.937-5.937l-2.26-1.055c-6.46-3.121-6.46-3.121-8.803-6.008-.367-2.252-.367-2.252-.356-4.915l-.01-3.023.038-3.257.006-3.343q.01-3.498.04-6.996c.032-3.584.042-7.167.048-10.751q.014-3.393.03-6.785l.014-3.27.029-3.004.02-2.658C26 273 26 273 27 272" fill="#a7a138"/>
  <path d="m301 384 15 1v2h2v2h-4l1 17-3-1v-2l-5 1v-12h2l-1-5-7-2z" fill="#ece038"/>
  <path d="M471 397h3c1.284 2.569.998 4.152.75 7l-.203 2.688C474 409 474 409 471 411c-4.26.614-8.026.358-12.062-1.125C457 408 457 408 456.688 404.813L457 402h5l1 2q2.22-.715 4.438-1.437l2.496-.81c2.028-.575 2.028-.575 3.066-1.753l-3-2z" fill="#c6bb42"/>
  <path d="M312 283h2l.734 1.61c1.98 4.171 3.798 7.258 7.266 10.39 2.43 2.617 3.226 4.697 3.938 8.125.41 2.075.41 2.075 1.062 3.875 1.968 1.36 1.968 1.36 4 2l1 3h2l-1 8c-2.317-2.18-4.087-4.443-5.848-7.09l-1.584-2.377-1.63-2.47-1.643-2.46c-3.993-6.016-6.452-10.296-7.295-17.603h-2z" fill="#e9e341"/>
  <path d="M277 396c1.206 2.332 2.165 4.496 3 7l3 2c-.875 4.875-.875 4.875-2 6-1.642.125-3.29.176-4.937.188l-2.715.042C271 411 271 411 269 409c-.125-2.625-.125-2.625 0-5-1.158 2.947-1.158 2.947-1 6h-2c-.879-6.152-.879-6.152-1-8 1-1 1-1 4.563-1.062L273 401l2 4h2v-2l-2-1z" fill="#d7d046"/>
  <path d="M334 81h9v1l-7 1v40h2v9l-2-2-1 16h-1q-.231-12.27-.443-24.539-.098-5.697-.205-11.394-.104-5.494-.195-10.99-.036-2.1-.078-4.198-.056-2.935-.1-5.869l-.061-3.378C333 83 333 83 334 81" fill="#f6ea33"/>
  <path d="M383 60q9.25-.113 18.5-.165 3.131-.022 6.262-.061c36.722-.451 36.722-.451 45.238 5.226-15.011-.495-30.013-.994-45-2v-1l-25-1z" fill="#8e893a"/>
  <path d="M209 94c2.3.188 2.3.188 5 1 1.73 2.25 1.73 2.25 3.188 5 1.746 3.665 1.746 3.665 4.812 6v3l1.839.302c2.59.836 3.221 1.641 4.74 3.858l1.327 1.904 1.344 1.999 1.39 2.01c1.13 1.635 2.247 3.28 3.36 4.927l-1 2c-2.312.313-2.312.313-5 0-1.625-2.25-1.625-2.25-3-5l-1.687-2c-1.632-2.486-1.556-4.085-1.313-7h-2l-2-5h-2v-2h-2l-1-5h-3l-.375-1.875c-.497-2.316-.497-2.316-2.625-4.125" fill="#f0ea4b"/>
  <path d="M502 140c2.475 3.747 2.213 7.38 1.938 11.688l-.142 2.254c-1.27 15.503-7.34 29.175-15.796 42.058l-1-4h2l.438-2.25c.464-2.27.98-4.508 1.562-6.75h2v-2h2v-5h2l.438-3.875c.268-2.382.484-3.97 1.562-6.125.21-1.787.368-3.58.5-5.375l.25-3.234L500 154q.245-3.313.5-6.625l.219-2.977C501 142 501 142 502 140" fill="#aba043"/>
  <path d="M230.168 381.633c2.318-.008 4.536.047 6.832.367 1 1 1 1 1.063 4.063L238 389h-2q.21 3.469.438 6.938c.08 1.287.162 2.575.246 3.902-.035 3.02-.035 3.02 1.316 4.16.125 3 .125 3 0 6-1 1-1 1-3.504 1.098l-3.059-.036-3.066-.027L226 411l-1-5h2v2h9v-4h-2v-18l-7-1v3l-2-1c1.13-3.01 1.842-4.804 5.168-5.367" fill="#a19a3d"/>
  <path d="M387 387c.91 4.3 1.16 7.75 0 12h-1l-1-9-6 1q-.079 2.625-.125 5.25l-.07 2.953c.196 2.817.75 4.406 2.195 6.797l-6-1 1 2c-4.75-.75-4.75-.75-7-3-.125-3.125-.125-3.125 0-6 1.5 1.375 1.5 1.375 3 3v2l3-1a764 764 0 0 0-.437-4.375l-.247-2.46c-.207-2.208-.207-2.208-1.316-4.165 2.314-2.708 4.093-3.541 7.563-4.25l2.378-.516C385 386 385 386 387 387" fill="#e1d84d"/>
  <path d="M217 242h2c8.08 17.63 6.104 39.836 0 57.672-1 2.328-1 2.328-3 4.328v-5h2l-.625-2.625c-.432-3.885.312-5.714 1.625-9.375 1.96-8.085 2.251-15.9 2.125-24.187l-.027-3.463q-.036-4.176-.098-8.35h-2z" fill="#8a8537"/>
  <path d="M438 382c1 1 1 1 1.188 3.438C439 388 439 388 437 390c-.648 2.57-.648 2.57-1 5h-3v-4h2l1-6-8-1v3h3v10h-5c.875-4.75.875-4.75 2-7l-4 2-2-6c4.573-5.046 9.639-4.651 16-4m-14 4 1 2Z" fill="#b8b142"/>
  <path d="M258 207c1.875.25 1.875.25 4 1 1.125 2 1.125 2 2 4l2 1 1.313 2.75c1.504 3.315 1.504 3.315 4.062 5.563 3.884 3.976 7.482 8.769 7.762 14.468L279 238h2l1 5c-2.975-2.794-5.172-5.593-7.312-9.062l-1.829-2.93L271 228c-3.75-6.017-7.513-11.89-11.934-17.441C258 209 258 209 258 207" fill="#f1eb4c"/>
  <path d="M96 382h13v6l-1 1a145 145 0 0 0-.562 6.063l-.254 3.347L107 401l-2-1v-12l-3-1-1-1c-1.187 3.56-1.351 6.973-1.562 10.688l-.131 2.126Q99.149 401.407 99 404l-2-1 .07-2.957.055-3.856.07-3.832c.08-3.489.08-3.489-2.195-6.355z" fill="#e6da59"/>
  <path d="M315 390h1l.184 2.887.253 3.8.247 3.762c.224 3.455.224 3.455.976 6.383L318 409c-2.52 2.52-3.515 2.297-7 2.313l-2.687.05L306 411c-2.568-3.852-1.827-6.364-1.125-10.687l.316-2.127c.26-1.73.533-3.459.809-5.186h1l1 8 5 1v3l2 1z" fill="#eadd4b"/>
  <path d="m61 198 8 1 1 3 2.266.148 2.984.227c.975.07 1.95.14 2.953.21 2.693.4 4.467 1.05 6.797 2.415v2l2.563-.187C91.559 207.03 94.46 208.3 98 210q2.466 1.1 4.938 2.188L107 214c-3.665 1.344-5.695.625-9.25-.812-3.14-1.257-6.095-2.269-9.395-3.043-5.477-1.317-10.596-3.5-15.793-5.645l-3.044-1.223-2.89-1.183-2.622-1.073C62 200 62 200 61 198" fill="#ebe440"/>
  <path d="m67 164 1.504 1.172c.68.52 1.359 1.041 2.058 1.578l2.004 1.547c6.917 4.84 13.863 7.387 21.871 9.953l3.374 1.102Q101.9 180.686 106 182c-3.76 2.507-6.65 2.692-11 2-3.346-1.258-6.393-2.93-9.5-4.687l-2.434-1.319A323 323 0 0 1 76 174l-2.34-1.349-2.191-1.307-1.955-1.162C68 169 68 169 67 166.188z" fill="#a8a63c"/>
  <path d="M454 255c3.5 3.325 6.265 6.631 8.875 10.688 3.598 5.52 7.318 10.935 11.125 16.312l-2 2v-2l-2.766-.625c-4.101-1.744-4.94-3.476-6.984-7.375-2.22-4.3-2.22-4.3-5.25-8-1.928-4.005-3-6.515-3-11" fill="#ede753"/>
  <path d="M184 85c6.653.613 12.748 2.163 19.125 4.125l2.918.82c7.884 2.43 11.313 5.88 15.637 12.707l1.195 2.285 1.242 2.34L225 109h-3v-3l-3-1a87 87 0 0 1-2.562-5c-2.132-3.899-2.132-3.899-5.946-5.812-2.655-.229-2.655-.229-5.222-.126C203 94 203 94 200 92a166 166 0 0 0-6.5-2.062l-3.469-1.036L187 88l-3-1z" fill="#d8d35c"/>
  <path d="M318 248c5.322 6.55 10.145 13.104 14.41 20.39 2.65 4.35 5.617 8.476 8.59 12.61l-1 2h-3l-1.125-3c-1.633-3.843-3.902-6.933-6.473-10.203-1.206-1.546-2.315-3.166-3.402-4.797l-1.937-1.75c-2.602-2.838-3.682-5.673-5.063-9.25l-1.187-2.937L317 249z" fill="#c2be47"/>
  <path d="M157 109c11.436 2.436 11.436 2.436 13 4 1.434.157 2.873.276 4.313.375 3.72.361 5.959.897 8.687 3.625-2.748 1.374-4.015.659-6.969-.11l-3.135-.784-3.396-.856c-13.404-3.26-26.778-4.998-40.5-6.25 7.474-4.983 19.679-1.41 28 0" fill="#cbca57"/>
  <path d="M462 383h4l2.563-.125C471 383 471 383 474 385c.188 2.625.188 2.625 0 5h-3v-3h-8v5h2v2l4 1v2h-5l-1 2v-2l-4-1-1-9 3-1z" fill="#ede247"/>
  <path d="M182 117h2l.031 2.048q.164 10.56.341 21.12.066 3.942.125 7.88.088 5.668.187 11.335l.05 3.552.06 3.335.048 2.92c.168 2.994.615 5.863 1.158 8.81-2-1-2-1-2.592-2.726-2-11.15-1.706-22.851-1.966-34.144q-.104-4.374-.223-8.747-.068-2.778-.133-5.555l-.072-2.645c-.044-2.06-.035-4.122-.014-6.183z" fill="#faf264"/>
  <path d="M141 194c7.273 1.44 14.086 3.634 21.063 6.125l3.2 1.129q3.871 1.365 7.737 2.746v1c-10.583-.15-22.283-.429-30.855-7.54C141 196 141 196 141 194" fill="#e8e149"/>
  <path d="M106 183c6.351 1.324 12.46 2.991 18.625 5 5.437 1.755 10.871 3.465 16.375 5-2 2-2 2-4.207 2.266-10.59-.064-10.59-.064-14.793-4.266-2.323-.4-4.657-.74-7-1v-2l-10-3z" fill="#e2dc47"/>
  <path d="m34 112 2 3-2 3h-2l-.148 1.977-.227 2.648c-.07.859-.14 1.717-.21 2.602C31 128 31 128 29.976 130.582c-1.469 5.138-1.265 10.165-1.227 15.48l-.023 3.26.007 3.15.007 2.852c.279 2.88 1.163 5.016 2.259 7.676-.375 2.813-.375 2.813-1 5-6.852-10.278-4.927-28.595-2.703-40.238 1.443-5.665 3.46-10.896 6.704-15.762" fill="#807d46"/>
  <path d="M451 297h3l1 2h3c1.688 1.25 1.688 1.25 3 3v4l2 1c1.543 3.267 2.391 6.448 3 10h2l1 3h-2l-1 2-1.285-2.309c-3.396-5.978-6.892-11.496-11.332-16.753-1.434-2.01-1.963-3.526-2.383-5.938" fill="#eae33e"/>
  <path d="M160 204c2.25.06 4.5.149 6.75.25l3.797.14c3.97.701 4.849 1.678 7.453 4.61 2.19 1.032 2.19 1.032 4.563 1.75 5.996 2.231 14.467 6.31 17.437 12.25l-1.629-.816a1351 1351 0 0 0-5.21-2.586l-3.099-1.536-3.09-1.527C184 215 184 215 181.548 213.415c-3.071-1.706-5.93-2.375-9.36-3.102l-3.519-.762L166 209v-3h-5z" fill="#f0e734"/>
  <path d="m417 381.813 2.125-.043C421 382 421 382 423 384c-1.968 1.968-5.348 1.662-8 2l-1 3h2v16l-3 1v4h10v1q-2.719.039-5.437.063l-3.06.035C412 411 412 411 411 410c-.216-2.666-.306-4.442.996-6.816 1.254-2.728 1.27-4.818 1.254-7.809l.016-2.914c-.025-2.638-.025-2.638-2.266-4.461-.125-2.625-.125-2.625 0-5 2.229-1.114 3.53-1.165 6-1.187" fill="#9b953a"/>
  <path d="m419 388 1 3 1.938 1.25c2.916 2.474 3.236 5.103 4.062 8.75h-5v-7c-2.12 3.534-2.532 6.944-3 11l5 1v3h-10v-3l2-1-.125-3.75c-.012-3.352.448-5.316 2.125-8.25v-4z" fill="#e9de38"/>
  <path d="M501 132c1.904 1.904 2.935 3.334 3.2 6.047-.011 1.985-.1 3.97-.2 5.953l-2-2-2 24h-3l-1 2 1-16h2l.076-1.728q.175-3.855.361-7.71l.12-2.72.127-2.588.11-2.396C500 133 500 133 501 132" fill="#f4eb37"/>
  <path d="m411.313 98.313 2.675.363L416 99a479 479 0 0 1-6.691 3.297l-2.872 1.453-2.878 1.422c-3.237 2.312-4.196 4.101-5.559 7.828-.356 2.688-.596 5.185-.687 7.875l-.104 2.086A431 431 0 0 0 397 128h-1c-.407-2.34-.734-4.643-1-7l-.277-2.34c-.46-7.1 1.683-12.23 6.277-17.66 3.635-2.762 5.818-3.347 10.313-2.687" fill="#afa943"/>
  <path d="m499 313 15 8-1 3h-20c3.228-2.152 4.284-2.2 8-2z" fill="#c9c552"/>
  <path d="M497 166h2l-2 10h-2v5h-2v2h-2l-.437 2.25c-.465 2.27-.982 4.508-1.563 6.75h-2l.344 2.168c-.49 4.032-2.875 5.683-5.844 8.144l-1.59 1.377A320 320 0 0 1 476 207l-3-1 3-1c1.209-2 1.209-2 2-4h2v-2h3v-2h2l.375-3.25c.521-3.129 1.026-5.085 2.625-7.75h2v-4h2l2-10h2z" fill="#eee747"/>
  <path d="M163 339v1c-7.334 1.804-14.138 2.226-21.668 2.012l-3.27-.069q-3.398-.075-6.794-.164a1793 1793 0 0 0-10.368-.238q-3.315-.075-6.63-.154l-3.11-.07c-5.136-.14-10.094-.455-15.16-1.317v-1l2.054.007q10.585.032 21.17.048 3.95.008 7.9.02c3.786.013 7.571.018 11.356.023l3.568.015h3.336l2.927.007c2.693-.05 2.693-.05 5.302-.654 3.277-.64 6.125-.042 9.387.534" fill="#eeea43"/>
  <path d="M46 387h1c.18 4.588-.033 7.847-2 12l-1 2.75C43 404 43 404 41 405v3l3-1c1.268.03 1.268.03 2.563.063 2.62.212 2.62.212 4.437-2.063v5c-2.501 1.25-4.274 1.133-7.062 1.125l-2.723.008C39 411 39 411 38 410c-.487-4.385.787-6.312 3-10a200 200 0 0 0 2.688-6.812c.436-1.162.873-2.323 1.324-3.52z" fill="#b3ac4e"/>
  <path d="M396 332h1l.262 2.45.425 3.238.387 3.199c1.21 4.066 2.565 5.514 5.926 8.113 3.191 1.523 6.465 2.682 9.813 3.813l2.677.943q3.249 1.14 6.51 2.244l-1 3-3 1-2-2v-3l-2.562.125c-3.86-.14-6.775-.953-10.438-2.125v-2l-4-1v-2l-3-1c-1.916-2.89-2.25-5.2-2.187-8.625l.019-2.352C395 334 395 334 396 332" fill="#a8a341"/>
  <path d="M31 278c2.415 2.415 4.125 4.556 6.063 7.313 3.84 5.042 8.355 7.823 13.937 10.687-4.5 1.604-7.435.035-11.66-1.746-2.937-1.574-4.49-3.516-6.34-6.254l-3-1z" fill="#c7bd3e"/>
  <path d="M57 133h1l.06 1.94c.096 2.916.205 5.832.315 8.748l.094 3.052.117 2.96.095 2.713c.346 2.803 1.166 5.02 2.319 7.587h2a83 83 0 0 1 3 4l2 2c.625 2.125.625 2.125 1 4-2.807-.08-4.482-.455-6.445-2.52C59 162.656 59 162.656 59 159l-2-1c-1.018-2.916-1.129-5.66-1.133-8.73l-.004-2.682.012-2.775-.012-2.811.004-2.67.004-2.446C56 134 56 134 57 133" fill="#eee53d"/>
  <path d="M264 386h1a469 469 0 0 1-.25 7.75l-.043 2.21c-.161 3.546-.375 5.627-2.629 8.43L260 406l-2 2v1l8 1v1h-10l-2-5 1.797-1.484c2.89-3.3 4.032-6.664 5.453-10.766l.813-2.258q.98-2.741 1.937-5.492" fill="#d9cf49"/>
  <path d="m406 196 13 1v1l-12 1c.01.868.02 1.736.032 2.63q.05 4.826.078 9.65.015 2.09.04 4.179c.025 2 .035 4.001.045 6.002l.032 3.65C407 228 407 228 405 230q-.288-6.54-.537-13.08a869 869 0 0 0-.187-4.45 844 844 0 0 1-.253-6.396l-.158-3.888C404 199 404 199 406 196" fill="#c9bf57"/>
  <path d="M187 184c4.258 1.339 6.075 2.936 8.625 6.563 2.46 3.644 2.46 3.644 6.375 5.437 2.703 3.499 4.75 6.51 5 11l-2 2-6.187-8.562-1.752-2.424Q192.008 191.023 187 184" fill="#c5c344"/>
  <path d="M392 312h1l.438 3.438c.174 3.37.174 3.37 1.562 4.562.121 1.636.18 3.277.21 4.918.03 1.007.058 2.015.087 3.053q.077 3.187.133 6.375c.173 5.679.457 9.834 3.57 14.654-1.875-.187-1.875-.187-4-1-4.14-7.189-3.128-16.996-3.062-25l.013-3.215q.018-3.892.049-7.785" fill="#f5eb32"/>
  <path d="M352 299c3.277 3.003 5.384 6.073 7.563 9.938l1.753 3.09L363 315q1.491 2.506 3 5l-3 1c-7-7-7-7-9-12l-2-2c-1.257-5.486-1.257-5.486 0-8" fill="#cdc740"/>
  <path d="m167 309-5.762 2.148a75 75 0 0 0-4.558 1.914c-13.46 4.71-31.636 2.043-45.68 1.938v-1l2.076-.076q4.713-.178 9.424-.361l3.266-.12c5.807-.23 11.475-.679 17.234-1.443a98 98 0 0 1 5-.062l2.313.027L152 312v-3l1.898.035 2.477.027 2.46.036c7.38-.333 7.38-.333 8.165-.098" fill="#ebe54f"/>
  <path d="M470 109c3.511 3.511 5 5.974 5 11l2 1v12h-2v-2h-3c-1.837-7.414-2.236-14.377-2-22" fill="#f1eb3c"/>
  <path d="M49 97c-.563 3.941-1.68 6.75-4 10h-2l-1 3-1.875.688c-3.403 2.101-3.99 5.614-5.125 9.312h-2l-1 2v-4l1.5-1.437L35 115l-.273-2.172c.424-4.388 3.16-6.573 6.148-9.64l1.684-1.811C46.71 97 46.71 97 49 97" fill="#e9df4d"/>
  <path d="m129 104.313 3.201.105 2.987.133 2.667.114C140 105 140 105 142 107l-16 2v-1l-28-2v-1a258 258 0 0 1 31-.687" fill="#eee837"/>
  <path d="m365 94 3 1c1.717.106 3.438.156 5.158.174l3.186.04 3.437.032 7.176.1q5.67.072 11.337.13c3.642.04 7.283.092 10.925.145l3.437.026 3.186.05 2.805.031C421 96 421 96 424 98c-3.1 1.034-5.314 1.134-8.562 1.125l-2.942.008C410 99 410 99 408 98a63 63 0 0 0-4.083-.205l-2.547-.06-2.753-.051-2.816-.063q-4.462-.097-8.926-.183l-6.043-.131Q373.416 97.146 366 97z" fill="#efe65f"/>
  <path d="M453 92c4.46 1.402 6.847 3.598 10 7l1.563 1.438c4.133 4.493 6.205 8.404 6.437 14.562l-2 3-.848-2.344C464.455 106.051 459.956 99.243 451 94z" fill="#b9b640"/>
  <path d="m302.133 381.886 2.777.016 2.998.01 3.155.025 3.166.014q3.885.018 7.771.049v1h-21c2.463 2.463 4.707 2.998 8 4v5h-4l-2.687.062C300 392 300 392 299 391c-.133-1.813-.133-1.813-.125-4l-.008-2.188c.196-2.67.596-2.783 3.266-2.926" fill="#aea235"/>
  <path d="M127 224c9.51.481 19.275.977 27 7q2.988 1.037 6 2l3 2v2a111 111 0 0 1-11.437-4.375c-6.027-2.56-12.066-4.192-18.41-5.73C130 226 130 226 127 224" fill="#b9b647"/>
  <path d="m333 320 4 1 .313 1.875c.562 2.49.562 2.49 3.687 4.125v2l4 2v4h3q.505 2.155 1 4.313l.563 2.425C350 344 350 344 350 347l-.926-1.406a576 576 0 0 0-7.922-11.684l-1.508-2.168a993 993 0 0 0-3.036-4.332l-1.413-2.031-1.28-1.826C333 322 333 322 333 320" fill="#d4d048"/>
  <path d="M462 67c10.183 1.81 18.215 9.59 25 17l-2 2v-2h-4l-.742-1.86c-1.509-2.566-2.7-3.179-5.383-4.39l-2.195-1.016L471 76v-2l-8-3v-2l-2-1z" fill="#bbb44a"/>
  <path d="M473 131h2c.147 4.25.235 8.499.313 12.75l.126 3.598c.118 8.608-1.532 14.987-5.439 22.652h-2l.84-2.691c3.492-12.02 3.97-23.845 4.16-36.309" fill="#c1b74a"/>
  <path d="M216 299c.976 6.41-1.349 9.634-5.078 14.766-1.827 2.124-3.615 3.662-5.922 5.234.99-4.836 1.957-9.476 4-14h2l.875-2.437C213.439 299 213.439 299 216 299" fill="#ede543"/>
  <path d="m84.723 381.902 3.34.036 3.347.027L94 382v1l-10 1 1 4c.069 2.594.094 5.158.063 7.75l-.014 2.113q-.02 2.57-.049 5.137h2l1 4 4 1v2h7v1c-4.631.32-7.15.41-11.375-1.625-3.16-2.859-3.864-4.19-4.625-8.375-.04-2.879 0-5.733.125-8.61.133-2.579.133-2.579-2.125-4.39-.187-2.562-.187-2.562 0-5 1-1 1-1 3.723-1.098" fill="#a39835"/>
  <path d="M420 393c2 2 2 2 2.375 4l.625 2 2 1c2 1 2 1 2.875 3l.125 2-2 2-1-1-1 4h-11v-1h10v-3h-5c-1.56-3.12-.636-5.647 0-9 1.063-2.437 1.063-2.437 2-4" fill="#e6d845"/>
  <path d="m172 386 1 2h-2l2 2c.457 2.193.82 4.406 1.125 6.625l.508 3.602L175 403h-3c-1.687-2-1.687-2-3-4l-2 2-1-12z" fill="#e5dc4a"/>
  <path d="M218 257h1q.037 7.422.055 14.844.008 2.526.02 5.052c.013 2.417.018 4.835.023 7.252l.015 2.29c0 5.334 0 5.334-1.113 7.562a100 100 0 0 0 0 5l-5 1-1 5h-1c-.187-2.312-.187-2.312 0-5l1.438-1.375c1.961-2.04 2.23-3.556 2.75-6.312l.48-2.45L216 288h2l-.108-2.523q-.193-4.637-.374-9.275-.121-2.993-.25-5.985l-.147-3.799-.143-3.507C217 260 217 260 218 257" fill="#f0e834"/>
  <path d="M164 236c7.027 0 10.188 2.3 15.313 6.992C181 245 181 245 181 248l2 1c.625 2.563.625 2.563 1 5h-2q-1.376-2.139-2.746-4.281c-4.164-5.707-9.955-8.846-16.254-11.719z" fill="#bfbc47"/>
  <path d="M73 85c-.437 2.375-.437 2.375-2 5-2.231.804-4.397 1.202-6.734 1.598-2.597.46-4.867 1.319-7.266 2.402v2l-6 2-2-2c17.14-11 17.14-11 24-11" fill="#b4ac49"/>
  <path d="M49 385h1c-.603 7.236-2.115 13.994-4 21h2l1-2v4l-3.375-.062c-3.457-.202-3.457-.202-5.625 1.062.517-3.823 1.26-5.373 4-8 .907-3.03 1.45-6.15 2.063-9.25l.535-2.703L47 387h2z" fill="#f2e74d"/>
  <path d="M115 190c5.185-.423 7.588.307 11.89 3.11 4.407 1.86 9.42 1.167 14.11.89v2l3 1v2l2 1c-6.625.25-6.625.25-10-2-2.509-.456-2.509-.456-5.187-.625l-2.731-.227L126 197v-3l-1.562-.375c-3.165-.811-6.3-1.72-9.438-2.625z" fill="#efe839"/>
  <path d="M95 213c5.486-.394 9.728 1.007 14.813 2.813l2.29.79q2.284.789 4.564 1.587c3.765 1.307 7.549 2.559 11.333 3.81l-1 2c-6.978-1.442-13.711-3.342-20.5-5.5l-3.031-.934-2.875-.91-2.604-.818C96 215 96 215 95 213" fill="#b4b247"/>
  <path d="M132 78v1l-12 1v1l-27 1v-2c13.065-1.655 25.834-2.25 39-2" fill="#d1ca5b"/>
  <path d="M270 386c3 1 3 1 3.914 2.742l.711 2.133.727 2.117L276 395l1 3-1 4 1 3-4 1v-5l-4-1-1-4h2v3h2l-.465-1.703c-.549-2.355-.85-4.642-1.098-7.047l-.253-2.422z" fill="#f0e740"/>
  <path d="M422 197v2l-12 2a5133 5133 0 0 0-.062 13.188l-.026 3.775-.01 3.642-.016 3.349c.105 2.804.473 5.32 1.114 8.046-1.839-1.563-2.887-2.505-3.432-4.894l-.08-2.133-.107-2.386-.068-2.524-.102-2.57c-.237-6.496-.328-12.993-.211-19.493q2.906-.504 5.813-1l3.269-.562C419 197 419 197 422 197" fill="#faeb35"/>
  <path d="M435 275a85 85 0 0 1 7 2c1.522 3.604 2 6.052 2 10l5 1c2 5.625 2 5.625 2 9-3.75-3.55-6.793-7.278-9.687-11.562l-1.182-1.71c-1.93-2.821-3.708-5.616-5.131-8.728" fill="#c2be42"/>
  <path d="M442 238c5.149 4.525 8.567 10.104 12 16v1c-2.187.5-2.187.5-5 0-2.398-2.839-5-6.188-5-10l-3-1z" fill="#cec948"/>
  <path d="M137 79v1l9 1v1h-38v-1l11-1v-1q3.092-.293 6.188-.562l3.48-.317c3.018-.11 5.421.139 8.332.879" fill="#fbf351"/>
  <path d="M460 383h2l-1 4h-3l1.063 3.375C460 394 460 394 459 396l4 1v6l4 1-4 1-1-3h-5v5h-1c-.37-5.538-.37-5.538 1.5-7.875L459 398l-1.5-1.625c-1.954-3.094-2.015-4.769-1.5-8.375 1.875-2.875 1.875-2.875 4-5" fill="#b7b142"/>
  <path d="m399 352 4 1 1 4h-45v-2c.856.01 1.713.02 2.595.032q4.837.051 9.673.078a768 768 0 0 1 4.16.04c8.062.1 15.73-.077 23.572-2.15z" fill="#f2e838"/>
  <path d="M289 63h42v1l-27 1-1 3-14-4z" fill="#f5ed4b"/>
  <path d="M200 223c3.304.066 5.975.174 8.625 2.309 3.793 4.276 7.295 9.35 9.375 14.691l-1 3c-1.07-1.605-2.127-3.224-3.078-4.902-2.732-4.745-5.194-7.18-9.922-10.098-2.375-2.75-2.375-2.75-4-5" fill="#c9c445"/>
  <path d="M47 332c6.514-.25 6.514-.25 8.895.977 2.597 1.262 4.663 1.367 7.542 1.523 4.595.322 9.128.785 13.688 1.438l3.258.464C83 337 83 337 85 339c-3.48-.082-6.958-.195-10.437-.312l-2.952-.069c-6.399-.235-11.65-1.343-17.611-3.619-2.324-.707-4.659-1.352-7-2z" fill="#dfda51"/>
  <path d="m128.23 381.757 2.743.013 2.974.005 3.116.037 3.126.002c7.67.046 7.67.046 8.811 1.186q.061 3.5 0 7l-2-2v-4l-20 1-2 5h-1c-.125-2.875-.125-2.875 0-6 2-2 2-2 4.23-2.243" fill="#a79e3c"/>
  <path d="M68 338c6.6-.128 13.162.059 19.75.438l2.146.118c4.414.27 8.734.763 13.104 1.444v1c-8.933 1.52-17.156 1.034-26.062-.5l-2.624-.434Q71.156 339.541 68 339z" fill="#c0b757"/>
  <path d="M304 230c2.42.38 3.687.66 5.372 2.49l1.206 1.889 1.328 2.04 1.344 2.143 1.39 2.155A641 641 0 0 1 318 246l-1 2c-2.437-.687-2.437-.687-5-2-.812-2.625-.812-2.625-1-5h-3l-.875-3.25c-.853-2.844-1.689-5.185-3.125-7.75" fill="#cec242"/>
  <path d="M254 196c5.469 4.395 5.469 4.395 7 6v3l3 1a123 123 0 0 1 2 5l2.188 3.125L270 217l-1 3c-3-3.625-3-3.625-3-7l-3-1-.937-2-1.063-2-4-1z" fill="#ede644"/>
  <path d="M282 244c1.766.164 1.766.164 4 1 1.922 2.398 1.922 2.398 3.75 5.375.92 1.466.92 1.466 1.86 2.96C293 256 293 256 293 259l3 1c.688 2.063.688 2.063 1 4h2v5c-3.915-3.467-6.172-6.9-8.598-11.512-2.083-3.697-4.56-7.085-7.047-10.52C282 245 282 245 282 244" fill="#b0ad46"/>
  <path d="m397.592 79.886 3.412.016 3.682.01 3.876.025 3.89.014q4.773.018 9.548.049l1 2c-19.35.894-38.634 1.127-58 1v-1l2.646-.076q4.845-.143 9.69-.296 2.099-.065 4.198-.125 3.013-.088 6.025-.187l3.665-.11c3.105-.23 3.317-1.186 6.368-1.32" fill="#f2e92c"/>
  <path d="M391 402h3c-1.27 3.913-2.463 5.856-6 8-4.262 1.42-8.713 2.103-12.855.105-1.433-.963-2.797-2.027-4.145-3.105 2.703-1.351 4.06-.601 7 0q3.155.098 6.313.063l3.238-.028L390 407z" fill="#b2a940"/>
  <path d="M227 161c5.717 1.023 5.717 1.023 8 4 2.023 3.221 3.792 6.375 5 10h2v2h2v2h-3l-1.375-2.312c-1.405-2.823-1.405-2.823-4.02-4.032-3.05-1.939-4.168-3.71-5.917-6.844l-1.551-2.73z" fill="#f7f047"/>
  <path d="M210 135h3v2l2.313.75c3.132 1.457 4.113 2.182 5.687 5.25.532 2.99.812 5.97 1 9-5.214-4.916-9.7-10.099-12-17" fill="#cfca4d"/>
  <path d="M341 389h2l1 17h-2v3h10l1-4v5c-2.623 1.312-4.637 1.133-7.562 1.125l-3.004.008C340 411 340 411 339 410c-.187-2.437-.187-2.437 0-5l2-2c.244-3.357.244-3.357.125-7.125l-.055-3.883z" fill="#aea745"/>
  <path d="M289 204c5.641 7.448 10.858 15.202 16 23l-3 1a2781 2781 0 0 1-7-10l-1.355-1.93C291 212.232 291 212.232 291 210h-2z" fill="#a7a53b"/>
  <path d="M51.875 381.625 55 382c2.385 3.325 3.85 6.86 5.25 10.688l1.078 2.886C62 398 62 398 61 400c-2.287-1.77-3.816-3.116-4.418-6.012l-.207-2.175L56 388l-2-1v-2h-5v2h-2c1.103-4.883 1.103-4.883 4.875-5.375" fill="#ad9f36"/>
  <path d="M268.875 381.625C272 382 272 382 273.75 384.188L275 387l1.25 2.563c.815 2.65.7 3.874-.25 6.437-2.125-3.188-2.502-5.265-3-9-2.158.947-2.158.947-4 3v-2h-2l-2-5c1-1 1-1 3.875-1.375" fill="#eae239"/>
  <path d="M457 189c-1 3-1 3-2.75 4.125-2.439.948-4.666 1.454-7.25 1.875l-3.562.688c-3.562.323-4.474.005-7.438-1.688q4.118-1.55 8.25-3.062l2.355-.893 2.286-.83 2.094-.778c2.335-.507 3.769-.18 6.015.563" fill="#dbd545"/>
  <path d="M132 384h15l1 7-7 2v-4h2v-2h-3v-2l-2.875.625L134 386z" fill="#e7dc51"/>
  <path d="M62 401c2.063 2.188 2.063 2.188 4 5-.379 2.676-.379 2.676-1 5q-2.686.118-5.375.188l-3.023.105L54 411l-2-3 1-3v2l5 1 1-3v3h4z" fill="#a39e44"/>
  <path d="M183 388h3v2l2 1-.062 3.063c.059 3.74.46 7.25 1.062 10.937l-6 2-1-2 4-1-1.5-1.375C183 401 183 401 183 399h2z" fill="#f2e24f"/>
  <path d="M230.168 381.633c2.318-.008 4.536.047 6.832.367 1 1 1 1 1.063 4.063L238 389h-3v6h-1v-9l-7-1v3l-2-1c1.13-3.01 1.842-4.804 5.168-5.367" fill="#c1bc4a"/>
  <path d="M411 357v2h6v1c-10.99.073-21.953-.15-32.937-.5l-4.71-.145q-5.677-.174-11.353-.355v-1l34.522-.848c6.25-.152 6.25-.152 8.478-.152" fill="#767325"/>
  <path d="m27 272 3 1c.688 2.063.688 2.063 1 4l-4-1v43h-1a9721 9721 0 0 1-.055-19.598q-.008-3.337-.02-6.673-.017-4.785-.023-9.569l-.015-3.033v-2.79l-.007-2.47C26 273 26 273 27 272" fill="#d4d15f"/>
  <path d="M221 276h2c.603 8.595-.758 19.149-5.637 26.45L216 304v-5h2l-.625-2.625c-.432-3.885.312-5.714 1.625-9.375.753-3.652 1.385-7.322 2-11" fill="#a5a040"/>
  <path d="m332 276 4 1 1 6 4-1 3 5h-3l2 1c.407 2.322.744 4.657 1 7-3.42-2.28-3.566-3.326-5-7l-1.437-1.437c-2.91-2.91-4.28-6.712-5.563-10.563" fill="#e2db39"/>
  <path d="M146 82c7.097-.108 13.96.061 21 1v2l3.875.375c5.111.56 10.101 1.545 15.125 2.625v2c-18.141-1.141-18.141-1.141-22-5a66 66 0 0 0-4.035-.535l-2.451-.264-2.577-.263-2.587-.276q-3.175-.336-6.35-.662z" fill="#f3ed40"/>
  <path d="M150 228c3.382-.295 6.626-.426 10 0 2.75 2.313 2.75 2.313 5 5 3.166 1.793 3.166 1.793 6 3-2.892.826-4.887 1-8 1l-4-4a253 253 0 0 0-6-2c-1.684-1.559-1.684-1.559-3-3" fill="#efe639"/>
  <path d="M295 65c7.625 1.75 7.625 1.75 11 4 .512 2.602.512 2.602.688 5.625l.199 3.04L307 80c-2-3-2-3-2.375-5.062-.44-2.087-.44-2.087-2.375-3L300 71c-2.75-1.437-2.75-1.437-5-3z" fill="#c5c047"/>
  <path d="M264 398c2.6 3.9 2.15 7.474 2 12h-9c1-4 1-4 2.938-5.437 2.52-1.91 3.101-3.601 4.062-6.563" fill="#eade44"/>
  <path d="M474 283a210 210 0 0 1 6.75 8.688l1.297 1.761C483 295 483 295 483 297l3 1-1 2c-3.826-1.559-6.251-3.954-9-7l-1-3h-2c-.625-1.812-.625-1.812-1-4z" fill="#bfbc43"/>
  <path d="M257 157c3.806 3.553 6.49 7.058 9.188 11.563l2.042 3.378c1.347 2.327 2.614 4.635 3.77 7.059h-3c-2.043-2.52-2.043-2.52-4.187-5.812l-2.168-3.27C261 167 261 167 261 164h-2v-3h-2z" fill="#a9a442"/>
  <path d="M69 116h9c-3.339 3.339-6.277 5.413-10.75 6.938-2.445.837-2.445.837-3.062 3.187L64 128h-2c-.687-1.687-.687-1.687-1-4 1.188-2.687 1.188-2.687 3-5 2.125-.687 2.125-.687 4-1z" fill="#ebe23c"/>
  <path d="M139 398v8l4-1-1 3h-10c.325-3.574.639-5.557 2.938-8.375C137 398 137 398 139 398" fill="#ece43f"/>
  <path d="M372 389h2c.857 3.08 1.27 6.068 1.563 9.25l.253 2.703L376 403h-4l-.875-2.437c-.858-2.696-.858-2.696-3.125-3.563l2-1c.73-2.314 1.401-4.648 2-7" fill="#efe444"/>
  <path d="m184 285 2 2c-.286 5.602-2.088 9.958-6 14l-4-2z" fill="#e6de4a"/>
  <path d="M276 185c2.903 2.63 4.909 5.68 7.063 8.938l2.097 3.152c1.436 2.272 2.71 4.478 3.84 6.91l-3 1q-2.19-3.373-4.375-6.75l-1.25-1.922c-4.399-6.81-4.399-6.81-5.375-9.328z" fill="#bfbb3f"/>
  <path d="M236 125c2.733 3.28 5.294 6.68 7.813 10.125l1.894 2.57L247 140l-1 3-1-2h-4a775 775 0 0 1-2.5-5.75l-1.406-3.234C236 129 236 129 236 125" fill="#e5de47"/>
  <path d="M29 298h1q.503 5.156 1 10.313l.29 2.958.273 2.842.253 2.619C32 319 32 319 32 322h2v2l2 1c-4.75-.75-4.75-.75-7-3-.227-2.43-.227-2.43-.195-5.445l.02-3.262.05-3.418.027-3.441q.036-4.218.098-8.434" fill="#f5ee3d"/>
  <path d="M439 85v1l11 3v4l-2.965-1.059C439.993 89.48 433.512 87.395 426 87v-1c4.386-.702 8.558-1.108 13-1" fill="#afab3f"/>
  <path d="m224 390 3 4 2-4 2 1-1 5h-2l-.437 1.875C227 400 227 400 226 402l2 1c-3 2-3 2-5.187 1.625L221 404l1-2h2v-8l-2-1c1-2 1-2 2-3" fill="#d3ca38"/>
  <path d="M393 230c1.766 3.533 2.261 4.762 2.414 8.441l.117 2.518.094 2.603.117 2.616c.143 3.277.258 6.54.258 9.822h-4z" fill="#efe430"/>
  <path d="m467 171 2 3c-2.486 5.768-5.221 10.971-11 14-2.219-.348-2.219-.348-4-1 .52-.4 1.039-.802 1.574-1.215 5.308-4.326 8.51-8.604 11.426-14.785" fill="#c7bd43"/>
  <path d="M140 387h3v2h-2l.492 1.71c.528 2.378.641 4.483.633 6.915l.008 2.352C142 402 142 402 141 404l2 1-4 1a2399 2399 0 0 1-.062-8.937l-.026-2.577-.01-2.45-.016-2.27C139 388 139 388 140 387" fill="#bfb63b"/>
  <path d="M106 183c7.496 1.525 14.714 3.68 22 6v1h-13v-2l-10-3z" fill="#beb848"/>
  <path d="M30 163c2.778 2.778 3.574 5.939 4.902 9.59.944 2.445.944 2.445 2.715 4.027C39 178 39 178 39.187 181.187L39 184c-4.752-3.872-8.441-10.104-9.316-16.207.003-1.918.003-1.918.316-4.793" fill="#b2ad40"/>
  <path d="M424 83c17.087-.276 17.087-.276 22 3v2l-8-1v-1l-13 1z" fill="#eae544"/>
  <path d="M315 390h1l.184 2.887.253 3.8.247 3.762c.224 3.455.224 3.455.976 6.383L318 409c-2 2-2 2-4.383 2.195l-2.742-.07-2.758-.055L306 411l-1-2 10-1z" fill="#9a9432"/>
  <path d="M99 385c2.867.573 3.861.861 6 3 .37 4.82-.248 8.51-2 13h-2v-15z" fill="#eae240"/>
  <path d="m41 327 6 1v2h9v2l12 2v1q-2.374.079-4.75.125l-2.672.07c-2.741-.207-4.198-.886-6.578-2.195a67 67 0 0 0-3.937-1c-3.16-.744-6.08-1.695-9.063-3z" fill="#f0e939"/>
  <path d="M58 143c3.165 2.728 3.267 4.678 3.617 8.805.552 3.167 1.963 5.661 3.543 8.433C66 162 66 162 66 165c-1.5-1.375-1.5-1.375-3-3v-2h-2c-2.915-3.804-3.343-6.59-3.187-11.312l.082-3.239z" fill="#c9c33d"/>
  <path d="M165 391h2l.25 2.188c.9 3.377 2.517 5.16 4.75 7.812l1 3-5-2c.776 3.075.776 3.075 3 5h-3c-3.788-4.068-3.25-8.545-3.105-13.77z" fill="#c6ba44"/>
  <path d="M454 255c4.873 4.3 7.82 9.372 11 15-4.046 0-5.128-1.2-8-4-2.088-4.033-3-6.436-3-11" fill="#c5c049"/>
  <path d="M176 209c9.197 2.674 16.859 6.591 24 13-8.051 0-17.374-7.583-24-12z" fill="#f3e94c"/>
  <path d="M310 187c4.351.837 6.513 1.452 9.5 4.813 1.615 3.432 1.739 4.677.5 8.187-4.202-3.718-6.998-8.317-10-13" fill="#d4ce44"/>
  <path d="M232 394h1v12h3v2c-5.625 1.125-5.625 1.125-9 0v-2h3l-.07-1.863-.055-2.45-.07-2.425C230 397 230 397 232 394" fill="#f4e656"/>
  <path d="M462 383h4l2.563-.125C471 383 471 383 474 385c.188 2.625.188 2.625 0 5h-3v-3c-3.832-.09-7.266.121-11 1z" fill="#eae154"/>
  <path d="M84 383h10v6l-3 1v-3l-2.875.063C85 387 85 387 83 386z" fill="#dbd455"/>
  <path d="m418 247 1 2 3 1a134 134 0 0 1 3 6l1.688 2.063c1.656 2.445 1.553 4.045 1.312 6.937-2.408-2.25-4.195-4.621-6-7.375l-1.57-2.395A193 193 0 0 1 416 248z" fill="#bab33d"/>
  <path d="M227 113c4.01 3.676 6.453 7.19 9 12-2.076.553-3.844 1-6 1-1.62-2.572-2.044-3.677-1.625-6.75L229 117h-2z" fill="#c7c144"/>
  <path d="m34 112 2 3-2 3h-2l-.148 1.977C31.428 124.933 30.843 129.33 29 134h-2c.525-8.14 2.438-15.157 7-22" fill="#a39b40"/>
  <path d="m96.313 108.875 3.238.055L102 109v1l-5.297 1.324-2.203.551-4.219 1.055-2.12.53L86 114l-2.316.58-2.215.553L78 116v-3l3.188-.875c3.62-.973 3.62-.973 6.156-2.187 3.138-1.108 5.65-1.136 8.969-1.063" fill="#b9b649"/>
  <path d="M462 67c-1.375 1.5-1.375 1.5-3 3h-2v-2l-3.375.063C450 68 450 68 448 67c-1.537-.225-3.08-.408-4.625-.562l-2.477-.254L439 66v-1c8.505-1.004 15.058-1.423 23 2" fill="#eee745"/>
  <path d="m143 405 1 4c-3.314 2.21-4.345 2.225-8.187 2.125l-2.731-.055L131 411l-1-5h2v2q2.47-.172 4.938-.375c.916-.07 1.833-.14 2.777-.21L142 407z" fill="#aba243"/>
  <path d="m184 256 3 1c.973 4.857 1.12 9.45 1.063 14.375l-.014 2.23q-.02 2.698-.049 5.395h-3l.035-3c.055-6.738.054-13.33-1.035-20" fill="#cec952"/>
  <path d="M74 207c7.972-.266 7.972-.266 12 2 2.055.537 4.117.998 6.195 1.438C94 211 94 211 96 213c-3.26 1.086-5.105.913-8.328-.215l-2.422-.83-2.5-.893-2.547-.88A735 735 0 0 1 74 208z" fill="#938f33"/>
  <path d="M471 397h3c1.312 2.623.896 4.23.563 7.125l-.31 2.758L474 409l-7-1 1-2 .875-2c1.125-2 1.125-2 4.125-4l-3-2z" fill="#e9df4a"/>
  <path d="m417 397 2 1-1 7 5 1v3h-10v-3l2-1q.562-3.491 1-7z" fill="#f1e23e"/>
  <path d="M150 197c5.257.663 9.929 2.256 14.875 4.063l2.375.853q2.876 1.036 5.75 2.084v1c-6.428.595-10.03-.746-15.656-3.82-2.752-1.385-5.28-1.938-8.344-2.18z" fill="#a7a445"/>
  <path d="m107.395 106.902 3.642.01 3.775.025 3.834.014q4.677.018 9.354.049v1c-4.02.367-8.04.716-12.062 1.063l-3.436.314c-5.707.483-10.879.79-16.502-.377v-1c3.862-.908 7.431-1.116 11.395-1.098" fill="#ddd962"/>
  <path d="m220 401 2 2c-.577 6.577-.577 6.577-2 8-2.02.072-4.042.084-6.062.063l-3.348-.028L208 411v-5l1 3h10l-.625-2.875L218 403z" fill="#b0ac49"/>
  <path d="M51 297c4.218 1.355 8.294 2.902 12.375 4.625l3.21 1.352L69 304v1c-7.299.286-11.602-1.727-18-5z" fill="#a29c3f"/>
  <path d="m190 182 1.46 1.277 1.915 1.66 1.898 1.653c1.683 1.48 1.683 1.48 3.727 2.41v2l3 1-1 4c-3.837-1.494-5.462-3.636-7.75-7l-1.86-2.687C190 184 190 184 190 182" fill="#f4ee3d"/>
  <path d="M502 140c2.82 4.004 2.009 8.123 1.625 12.75l-.172 2.402A694 694 0 0 1 503 161l-3-1q.21-4.438.438-8.875l.119-2.55.127-2.442.11-2.254C501 142 501 142 502 140" fill="#cdc656"/>
  <path d="M184 85c7.087.545 13.328 2.61 20 5v1c-7.543.495-13.059-1.094-20-4z" fill="#aba742"/>
  <path d="m371 60 3 1c2.583.153 5.145.257 7.73.316l2.274.063q3.593.097 7.183.184l4.874.13q5.97.16 11.939.307v1h-41l4-1z" fill="#e2dc51"/>
  <path d="m348 386 4 3h-2q.213 2.876.438 5.75c.08 1.067.162 2.135.246 3.234.257 2.453.634 4.655 1.316 7.016l-3 1v-2l-2-1z" fill="#c6b634"/>
  <path d="M476 383.125c1.556 2.917 1.183 5.641 1 8.875h-2l-1-7-3.875-.562-2.18-.317c-2.026-.29-2.026-.29-3.945.879v-2l-2-1c4.485-1.682 9.847-1.21 14 1.125" fill="#afa949"/>
  <path d="M170 335c-3 2-3 2-7 2v2l-2.875-.062c-4.74-.01-9.42.532-14.125 1.062 4.399-4.399 18.504-7.748 24-5" fill="#f0e947"/>
  <path d="m434 231 3 1v4l5 2v6l2 1-1 2h-3a9742 9742 0 0 1-3.809-9.863A158 158 0 0 1 434 231" fill="#f3ea3c"/>
  <path d="M128 220q3.565.64 7.125 1.313l2.016.357c4.375.836 8.021 2.061 11.859 4.33l1 2c-7.74-1.018-15.158-3.22-22-7z" fill="#efe637"/>
  <path d="M320 200c3.175.34 4.023 1.025 6.25 3.438C328 206 328 206 328 208l2 1v4l2 1h-3a72 72 0 0 1-4.687-5.875l-1.26-1.684C320 202.281 320 202.281 320 200" fill="#b1ad3f"/>
  <path d="M335 97h1v26h2v9c-3.403-3.564-3.352-6.356-3.293-11.172l.013-2.068c.017-2.17.054-4.34.092-6.51q.024-2.212.042-4.426.051-5.412.146-10.824" fill="#f3c039"/>
  <path d="m433 402 4 2-1 6-7 1-2-4 4-2v4h3z" fill="#c9bc4d"/>
  <path d="m499 122 4 1c1.102 4.41 1.077 8.484 1 13-1.953-1.145-1.953-1.145-4-3-.61-2.7-.61-2.7-.75-5.687l-.172-3.012z" fill="#d8cc4e"/>
  <path d="M474 79h2v2l1.898.621 2.477.817 2.46.808C485 84 485 84 487 85l-1 7-2.125-2.25c-2.779-2.838-2.779-2.838-6.125-4.812C475 83 475 83 474.125 80.75z" fill="#ebe234"/>
  <path d="M158 80v1c-8.489.994-16.504.89-25 0 6.782-4.258 17.409-2.446 25-1" fill="#dbd661"/>
  <path d="m471 387-1 6-7-1v-5c2.862-1.43 4.934-.6 8 0m-6 3 4 1Z" fill="#b3ab3e"/>
  <path d="M96 382h10v1l-8 1 .494 1.757c.783 3.47.61 6.956.569 10.493l-.014 2.258q-.02 2.745-.049 5.492l-2-1 .07-2.957.055-3.856.07-3.832c.08-3.489.08-3.489-2.195-6.355z" fill="#807b2d"/>
  <path d="M171 333c1.858.09 3.712.246 5.563.438l3.066.308L182 334c-3.099 2.066-5.35 2.747-8.937 3.625l-3.153.79C167 339 167 339 163 339v-2l3.438-1.437c3.32-1.2 3.32-1.2 4.562-2.563" fill="#c6c04f"/>
  <path d="M451 297c3 0 3 0 4.688 1.25C457 300 457 300 457 304h2c2.125 4.625 2.125 4.625 1 8a1596 1596 0 0 1-4.5-6.375l-1.3-1.828c-3.2-4.57-3.2-4.57-3.2-6.797" fill="#c1be48"/>
  <path d="m489 184 1 2h-2l-.375 1.563c-.811 3.164-1.72 6.298-2.625 9.437h-2v2h-3v2c-1.812 1.688-1.812 1.688-4 3l-3-1c4.572-4.826 4.572-4.826 7.008-5.816 2.85-1.693 3.391-3.714 4.617-6.746 2.18-5.34 2.18-5.34 4.375-6.438" fill="#f0e837"/>
  <path d="M92 179c5.007.334 9.281 1.23 14 3-3.696 2.464-6.71 2.576-11 2-3-1.5-3-1.5-5-3z" fill="#bdb93d"/>
  <path d="M46 387h1c.18 4.588-.033 7.847-2 12l-1.125 2.813L43 404l-3-1z" fill="#aea83a"/>
  <path d="m307 392 3 2 2-1v9l-5 2z" fill="#edde4f"/>
  <path d="M406 351c5.929 1.167 11.388 2.755 17 5l-1 3-3 1-2-2v-3l-2.687.125c-3.286-.124-5.367-.739-8.313-2.125z" fill="#89894e"/>
  <path d="M309 164h1c1.656 7.454 1.72 15.56 0 23l-2-1z" fill="#dcd240"/>
  <path d="m83 386 8 1-.437 2c-.686 3.656-1.125 7.306-1.563 11-2.569-2.569-2.306-4.534-2.648-8.023-.46-2.58-1.557-4.104-3.352-5.977" fill="#ebe140"/>
  <path d="M258 207c1.875.25 1.875.25 4 1 1.125 2 1.125 2 2 4l2 1c1.188 3.438 1.188 3.438 2 7l-1 2-1.207-1.828-1.606-2.422-1.582-2.39a85 85 0 0 0-3.304-4.532C258 209 258 209 258 207" fill="#b5b247"/>
  <path d="M162 111c6.875.875 6.875.875 8 2 1.434.157 2.873.276 4.313.375 3.72.361 5.959.897 8.687 3.625-3.419 1.71-7.061-.044-10.625-.937l-2.43-.592q-2.974-.728-5.945-1.471v-2z" fill="#b8b544"/>
  <path d="m186 405 3 1c-4.672 3.811-6.825 5.096-12.93 5.328C174 411 174 411 170 408l13 1v-2z" fill="#b1a741"/>
  <path d="M346 387h2v14l-4 1v-6h2l-.562-2.25c-.43-2.7-.29-4.196.562-6.75" fill="#eadb2d"/>
  <path d="m61 92 1 3a500 500 0 0 1-5.312 3.063l-2.989 1.722C51 101 51 101 48 100l1-3 8-1v-2z" fill="#f1e53d"/>
  <path d="m315 386 3 1v2h-4l1 17-3-1 1-15-3-1c2.313-1.562 2.313-1.562 5-3" fill="#e0d53b"/>
  <path d="M301 383h22v2c-5.202.967-9.696.89-14.937.063l-2.073-.303A582 582 0 0 1 301 384z" fill="#d5cc59"/>
  <path d="m492 313 9 6c-1 1-1 1-3.723 1.098l-3.34-.036-3.347-.027L488 320l4-2z" fill="#ede222"/>
  <path d="M314 247h4l.313 2.75c.711 3.365 1.637 4.603 3.687 7.25.688 2.75.688 2.75 1 5l-2 1-.75-2.187c-1.135-2.908-1.135-2.908-3.312-5.25-2.208-2.92-2.603-4.962-2.938-8.563" fill="#f1eb45"/>
  <path d="M457 402h5c1.125 4.75 1.125 4.75 0 7l-5-1z" fill="#efe75c"/>
  <path d="M209 382c8.261-.623 8.261-.623 11 1.688 1.082 2.502 1.785 4.588 2 7.312l-2 2-2-5h-2l1-4-8-1z" fill="#a09c32"/>
  <path d="M373 384h4c-.812 1.938-.812 1.938-2 4l-3 1-1 8-2-1c.46-4.683.968-8.294 4-12" fill="#c7be52"/>
  <path d="M100 311h7l1 2 3 1v2h-10z" fill="#c6c236"/>
  <path d="M299 267h3c4.571 7.286 4.571 7.286 4 12-2.955-2.751-5.152-5.397-7-9z" fill="#dcd74f"/>
  <path d="M41 106c-1.835 4.74-3.92 9.364-6 14h-2l-1 2v-4l1.5-1.437L35 115l-.062-2.437C35 110 35 110 36.875 107.687 39 106 39 106 41 106" fill="#cdc844"/>
  <path d="M196 327a380 380 0 0 1-5.75 3.625l-3.234 2.04C184 334 184 334 181.609 333.21L180 332c3.73-2.034 5.67-3 10-3v-2c3-1 3-1 6 0" fill="#ada939"/>
  <path d="m487 301 5 5 2.75 2.688C497 311 497 311 498 313c-4.281-.489-6.092-1.614-8.875-4.875l-1.867-2.117L486 304z" fill="#a8a43d"/>
  <path d="M352 299c2.632 2.456 4.815 4.554 6 8-.375 2.25-.375 2.25-1 4l-1-2-2-.75c-2-1.25-2-1.25-2.812-4.25-.188-3-.188-3 .812-5" fill="#b1ac3f"/>
  <path d="M247 142c3.045 2.833 5.169 5.655 7.25 9.25l1.578 2.703L257 156l-2 1-.625-1.687c-1.352-2.604-1.352-2.604-4.5-4.688C247 148 247 148 246.625 144.688z" fill="#aba646"/>
  <path d="M462 67c5.18 1.243 8.702 2.855 13 6-3.304 1.124-5.05.896-8.25-.437l-2.14-.872L463 71v-2l-2-1z" fill="#b7b33c"/>
  <path d="M51 390c2.063 2.313 2.063 2.313 4 5l-1 3-6 1v-4h2z" fill="#e2d535"/>
  <path d="M460 383h2l-1 4h-3l1.063 3.375C460 394 460 394 459 396h-2c-1.427-2.853-1.31-4.835-1-8 1.875-2.875 1.875-2.875 4-5" fill="#b2aa3a"/>
  <path d="m342.688 381.867 3.312.008 3.313-.008C352 382 352 382 353 383c.04 1.666.043 3.334 0 5l-2-3c-2.656-.583-2.656-.583-5.625-.687l-3.04-.2L340 384l-1 4a100 100 0 0 1 0-5c1-1 1-1 3.688-1.133" fill="#8d8a39"/>
  <path d="m468 321 18 1c-4.34 2.17-6.484 2.213-11.25 2.125l-3.828-.055L468 324z" fill="#d3d65a"/>
  <path d="m80 308 18 2c-2 2-2 2-5.187 2.012L89 311.687l-3.812-.3C82 311 82 311 80 310z" fill="#b2b04e"/>
  <path d="M188 283c1.526 4.577.506 7.736-1.25 12.125-1.915 3.147-3.477 4.283-6.75 5.875l.875-1.723A199 199 0 0 0 188 283" fill="#efe728"/>
  <path d="M41 294c1.65.422 3.295.863 4.938 1.313l2.777.738L51 297l1 3 2 2c-4.78-.58-8.021-2.399-12-5z" fill="#efe350"/>
  <path d="M324 264c1.828.227 1.828.227 4 1 1.484 1.96 1.484 1.96 2.75 4.375l1.297 2.398C333 274 333 274 333 277l-3-1-.187-2.25c-1.055-3.569-2.923-4.527-5.813-6.75z" fill="#f4ee42"/>
  <path d="M422 197v2l-12 2-2 6h-1v-8q2.906-.504 5.813-1l3.269-.562C419 197 419 197 422 197" fill="#f1ea5c"/>
  <path d="M96 183h10l1 2c1.883.903 1.883.903 4.063 1.625.733.26 1.466.52 2.222.79L115 188c-3.462 1.2-5.502.78-8.937-.375-3.343-1.106-6.597-1.993-10.063-2.625z" fill="#eee848"/>
  <path d="M80 176c4.972 1.492 9.418 3.605 14 6v2c-3.95-.551-7.35-1.39-11-3v-3h-3z" fill="#eee636"/>
  <path d="m223 109 4 2v6h2l-2 4c-2.097-2.36-2.97-3.546-3.187-6.75L224 112l-2-1z" fill="#e3dc49"/>
  <path d="M304 65h7l-1 1.563c-1.32 3.217-1.132 5.994-1 9.437-3-2-3-2-3.73-4.164l-.457-2.461c-.16-.817-.318-1.635-.481-2.477z" fill="#f2ea2f"/>
  <path d="m269 406 2 1v2h9v-2l3-1c-.875 3.875-.875 3.875-2 5-1.642.125-3.29.176-4.937.188l-2.715.042C271 411 271 411 269 409z" fill="#a49d3c"/>
  <path d="M183 382v2l-12 1-1 3-3-1c5.08-5.346 8.784-5.642 16-5" fill="#a19f40"/>
  <path d="M163 339v1c-5.76 1.298-11.087 2.257-17 2v-2c6.022-1.466 10.904-2.325 17-1" fill="#b8b742"/>
  <path d="m494.625 320.938 3.602.027L501 321v1c-6.46 1.95-12.272 2.223-19 2 4.65-2.325 7.31-3.115 12.625-3.062" fill="#e4e254"/>
  <path d="M169 303v3c-3.094 3.094-6.552 3.937-10.875 4.125L156 310v-2z" fill="#b7b349"/>
  <path d="M429 264h3l4 9-2 2a283 283 0 0 1-3.062-3.812l-1.723-2.145L428 267z" fill="#b6b23c"/>
  <path d="M273 230h5l1 8h2l1 5c-4.234-3.607-6.47-8.146-9-13" fill="#c0bc46"/>
  <path d="m485 194 2 3-11 10-3-1 3-1c1.209-2 1.209-2 2-4h2v-2h3v-2h2z" fill="#b8b342"/>
  <path d="M248 192c3.775 1.749 5.711 3.449 8 7 .75 3.813.75 3.813 1 7-3.741-4.295-6.342-8.999-9-14" fill="#a6a33f"/>
  <path d="M137 79c-3.595 2.26-6.566 2.209-10.75 2.125l-3.547-.055L120 81l-1-2q3.092-.293 6.188-.562l3.48-.317c3.018-.11 5.421.139 8.332.879" fill="#efe85d"/>
  <path d="M345.875 405.5c2.414.568 3.793.25 6.125-.5v4h-10v-3c2-1 2-1 3.875-.5" fill="#ede052"/>
  <path d="M88 339c5.152-.09 9.92.153 15 1v1c-5.385.917-10.542 1.111-16 1z" fill="#cfce4d"/>
  <path d="M205 313c.625 1.875.625 1.875 1 4l-2 2-2-1v3l-6 2c.737-1.3 1.49-2.589 2.25-3.875l1.266-2.18c1.643-2.154 3-2.936 5.484-3.945" fill="#eee93f"/>
  <path d="m279 234 1 2h2c1.543 1.863 1.543 1.863 3.188 4.313l1.667 2.425L288 245l-1 3-2-3-3-1-1-6h-2z" fill="#eeea46"/>
  <path d="M187 184c4.284 1.328 5.978 2.825 8.313 6.625l1.55 2.477L198 195l-2 2q-1.97-2.685-3.937-5.375l-2.215-3.023C188 186 188 186 187 184" fill="#9f9f35"/>
  <path d="m493 181 2 1c-2.009 4.921-4.293 9.425-7 14l-1-4h2l.438-2.25c.464-2.27.98-4.508 1.562-6.75h2z" fill="#c3bf4b"/>
  <path d="M88 81v2c-2.897 1.614-5.333 2.376-8.625 2.75l-2.352.297C75 86 75 86 73 84q2.904-.755 5.813-1.5l3.269-.844C85 81 85 81 88 81" fill="#a69c46"/>
  <path d="M306 393h1l.586 6.055c.278 2.172.278 2.172 2.414 3.945v3l-6 2z" fill="#87822b"/>
  <path d="m288 248 4 2v3h2c2 3 2 3 1.625 5.188L295 260c-2.653-1.326-3.211-2.853-4.625-5.437l-1.352-2.434C288 250 288 250 288 248" fill="#f2ee3f"/>
  <path d="m300 226 6 3-1 2 1.563 1.813L308 235l-1 3c-2.5-2.312-2.5-2.312-5-5v-3h-2z" fill="#eee74d"/>
  <path d="M216 96c4.234 3.607 6.47 8.146 9 13h-3v-3l-3-1c-2.466-3.379-3-4.706-3-9" fill="#9f9a3f"/>
  <path d="M488 94h2c3.089 5.665 5.577 10.509 6 17-3.385-2.67-4.377-6.241-5.687-10.187l-.682-1.983A642 642 0 0 1 488 94" fill="#f0e932"/>
  <path d="M73 85c-1.75 4.875-1.75 4.875-4 6-2 .04-4 .043-6 0v-2l4-1v-2c3-1 3-1 6-1" fill="#cac048"/>
  <path d="m217 403 2 1v5h-10l1-3 7-1z" fill="#ece450"/>
  <path d="M269.563 400.938 273 401l-2 4-3-1v6h-2c-.879-6.152-.879-6.152-1-8 1-1 1-1 4.563-1.062" fill="#beb83f"/>
  <path d="M439 383c.125 2.375.125 2.375 0 5l-2 2c-.648 2.57-.648 2.57-1 5h-3v-4h2l1-6-2-1c3.875-1 3.875-1 5-1" fill="#cbc550"/>
  <path d="M428 387h3v10h-5z" fill="#bcaf29"/>
  <path d="M387 382c2.625 2 2.625 2 4 4l-1.937-.5c-3.428-.56-6.614-.485-10.075-.34C377 385 377 385 375 383c3.684-1.842 7.98-1.5 12-1" fill="#99933b"/>
  <path d="m202 318 3 1c-2.808 2.964-5.183 5.445-9 7l-3-3 3-2v2l3-2h3z" fill="#beb53d"/>
  <path d="M333 271c3.68 3.382 5.979 6.425 8 11l-4 1a1151 1151 0 0 1-2-4.875l-1.125-2.742C333 273 333 273 333 271" fill="#a39d3a"/>
  <path d="M122 218a72 72 0 0 1 7.688 2.875l2.126.895c1.734.73 3.46 1.479 5.186 2.23-3.652 1.072-6.264.764-10 0v-2l-8-2z" fill="#e2de47"/>
  <path d="m406 196 13 1v1l-2.59.148-3.348.227c-1.102.07-2.204.14-3.34.21L407 199l-1 2h-2z" fill="#bcb74c"/>
  <path d="M471 117c2 1 2 1 2.625 2.563.539 3.501.434 6.895.375 10.437h-2a987 987 0 0 1-1.062-5.937l-.598-3.34L470 118z" fill="#c2bf45"/>
  <path d="M85 111c-1.983 1.983-3.512 2.794-6 4l-3 2c-2.687.125-2.687.125-5 0 4.168-4.631 7.745-6.357 14-6" fill="#e8df47"/>
  <path d="m215 402 3 1v3l-1.898.113-2.477.2-2.46.175c-2.544.342-2.544.342-4.165 3.512v-5c3.01-.934 3.867-1.044 7 0z" fill="#c6be3d"/>
  <path d="m385 386 2 1c.91 4.3 1.16 7.75 0 12h-1l-1-9h-6c2.052-2.248 3.007-3.002 6-4" fill="#979031"/>
  <path d="m84.723 381.902 3.34.036 3.347.027L94 382v1l-10 1 1 7c-2-1.187-2-1.187-4-3-.312-2.625-.312-2.625 0-5 1-1 1-1 3.723-1.098" fill="#7f7b2b"/>
  <path d="M310 236c3.67 3.277 5.693 6.715 8 11h-4c-1.46-2.647-2-3.894-2-7h-2z" fill="#a19e38"/>
  <path d="M472.188 207.375 474 208c-4.284 2.57-8.173 4.587-13 6l-2-2 1.645-.586 2.168-.789 2.144-.773c6.317-2.634 6.317-2.634 7.23-2.477" fill="#a09d36"/>
  <path d="M439 196c-3.15 1.846-5.489 2.272-9.125 2.25l-2.633.016C425 198 425 198 423 196c5.606-.826 10.423-1.068 16 0" fill="#bab84d"/>
  <path d="m472 170 2 1-2 3a75 75 0 0 0-1 5l-3 1c-1.209 2-1.209 2-2 4l-2-2z" fill="#f4eb30"/>
  <path d="M227 161c2.313 0 2.313 0 5 1 1.473 2.529 2.425 5.131 3 8l-1 2a1994 1994 0 0 1-3.5-4.937l-1.969-2.778C227 162 227 162 227 161" fill="#b2ae41"/>
  <path d="M499 107c1.4 2.635 2.412 5.104 3.125 8l.508 2c.367 2 .367 2 .367 6h-2c-2.271-5.395-2.204-10.262-2-16" fill="#978d36"/>
  <path d="m465 107 5 1c1.25 6.625 1.25 6.625-1 10z" fill="#b2b13f"/>
  <path d="m169 81-1 2c-5.786.105-11.293-.007-17-1v-1c6.159-1.232 11.787-.73 18 0" fill="#bdba50"/>
  <path d="M171 388h11l-1 3-2.875-.187L175 391l-2 3c-2-3-2-3-2-6" fill="#bdb24f"/>
  <path d="M428 384c5.75-.125 5.75-.125 8 1l-1 5-4-2-3-1z" fill="#ebe14a"/>
  <path d="M52.063 381.938 55 382l1 3-2 2v-2h-5v2h-2c1.125-4.982 1.125-4.982 5.063-5.062" fill="#b3ae41"/>
  <path d="M435 227q2.007 2.494 4 5l1.813 2.125L442 236l-1 3c-2-1.25-2-1.25-4-3v-4l-3-1z" fill="#afab41"/>
  <path d="M450 190v2h-4l-1 3c-3.875 1.076-5.525.946-9-1q2.936-1.005 5.875-2l3.305-1.125C448 190 448 190 450 190" fill="#8d8730"/>
  <path d="m311 178 3 2-1 7 2 1c-3 0-3 0-4.687-1.5L309 185z" fill="#f0e84a"/>
  <path d="m365 96 7 1-2 2c-.46 2.203-.46 2.203-.625 4.625l-.227 2.477L369 108c-1.765-3.088-2-4.233-2-8h-2z" fill="#f8ed57"/>
  <path d="m88 81 16 1v1l-18 1 2-1z" fill="#efea5e"/>
  <path d="M289 63h15l-2 2 1 2-14-3z" fill="#ede453"/>
  <path d="M183 388h3v2l2 1v6l-3 1z" fill="#efe042"/>
  <path d="M210 195h1v16l-4 1v-2h2z" fill="#818136"/>
  <path d="M69 116h9c-2.928 2.928-5.298 4.272-9 6-1.125-3.75-1.125-3.75 0-6" fill="#ada738"/>
  <path d="M412 96c1.437-.054 2.875-.093 4.313-.125l2.425-.07C421 96 421 96 424 98c-2.75.917-4.36 1.109-7.187 1.063L413 99z" fill="#d7d373"/>
  <path d="m301 384 15 1-1 2c-9.41.369-9.41.369-14-2z" fill="#e9df4b"/>
  <path d="M344 336c2.825 1.036 3.817 1.633 5.188 4.375.68 2.2 1.313 4.378 1.812 6.625-3.827-3.424-5.723-6.007-7-11" fill="#a29c3e"/>
  <path d="M196 325c-3 2-3 2-6 2v2l-5 1-1-2c7.286-4.714 7.286-4.714 12-3" fill="#ebe23e"/>
  <path d="M505 320c3.735.498 5.812.875 9 3-1 1-1 1-2.848 1.098L505 324z" fill="#eee876"/>
  <path d="M318 295c1.5 1.375 1.5 1.375 3 3v2l3 2c.688 3.125.688 3.125 1 6-3.975-3.407-5.868-7.328-8-12z" fill="#9f9d3e"/>
  <path d="M466 272c3.67 3.277 5.693 6.715 8 11l-2 1v-2l-1.875-.5c-3.403-2.402-3.351-5.502-4.125-9.5" fill="#aaa339"/>
  <path d="M282 244c1.813.188 1.813.188 4 1 1.813 2.313 1.813 2.313 3 5-.426 2.168-.426 2.168-1 4a1613 1613 0 0 1-3-4.437l-1.687-2.497C282 245 282 245 282 244" fill="#a19a3a"/>
  <path d="M211 230c3.329 2.984 5.32 5.846 7 10l-1 3-2-3-2.125-2.937C211 234 211 234 211 230" fill="#b2af39"/>
  <path d="M159 232c5.076-.615 7.83 1.383 12 4-2.892.826-4.887 1-8 1-2.25-2.5-2.25-2.5-4-5" fill="#eee64b"/>
  <path d="m283 201 3 2v2l3-1v6l-4-1z" fill="#efe842"/>
  <path d="M472 163h1c-.35 8.193-.35 8.193-3.062 11.563L468 176v-6h2l.438-1.812c.45-1.75.99-3.475 1.562-5.188" fill="#f0e74f"/>
  <path d="M106 406c-1.75 2.063-1.75 2.063-4 4-2.25-.25-2.25-.25-4-1l1-3c3.133-1.044 3.99-.934 7 0" fill="#b1ab3f"/>
  <path d="M258 402v7l8 1v1h-10l-2-5z" fill="#867e37"/>
  <path d="M411 355h6v2l2 1c-2.709 1.354-5.01 1.065-8 1z" fill="#ebee84"/>
  <path d="m184 285 2 2c-1.161 4.355-2.077 6.646-6 9l-2-1 1.059-1.68 1.379-2.195 1.37-2.18c1.217-1.923 1.217-1.923 2.192-3.945" fill="#b7b246"/>
  <path d="M185 279h3a340 340 0 0 1-.375 4.313c-.07.8-.14 1.6-.21 2.425C187 288 187 288 185 291z" fill="#e9e459"/>
  <path d="m122.688 219.938 2.449.59L127 221v3q-2.159-.427-4.312-.875l-2.426-.492C118 222 118 222 115 220c3.297-1.099 4.405-.871 7.688-.062" fill="#a4a238"/>
  <path d="m50 194 5 1v2l6 1-1 3c-4.435-1.394-6.874-3.606-10-7" fill="#9b9833"/>
  <path d="m135.125 191.438 3.32.87L141 193l-2 2c-2.059-.172-2.059-.172-4.437-.75l-2.372-.547C130 193 130 193 127 191c2.987-1.493 4.952-.406 8.125.438" fill="#a09e3b"/>
  <path d="M139 404v2l4-1-1 3h-10c3.625-4 3.625-4 7-4" fill="#f2e552"/>
  <path d="m333 320 4 1 .375 1.938L338 325l2 1-1 4a617 617 0 0 1-3-3.875l-1.687-2.18C333 322 333 322 333 320" fill="#aaa93a"/>
  <path d="m27 318 .25 1.875c.544 2.305.544 2.305 2.75 3.188l2 .937 1 3c-2.915-1.074-4.778-1.778-7-4 .375-2.625.375-2.625 1-5" fill="#b1ad41"/>
  <path d="M481 298c2.169.506 4 1 6 2l-1 5c-1.937-.687-1.937-.687-4-2-.75-2.625-.75-2.625-1-5" fill="#e6de52"/>
  <path d="M164 236c4.314.48 6.166 1.746 9 5l-2 1c-1.945-.777-1.945-.777-4.125-1.937l-2.195-1.153L163 238z" fill="#a9a63b"/>
  <path d="m127 224 12 1v3q-2.159-.427-4.312-.875l-2.426-.492C130 226 130 226 127 224" fill="#868434"/>
  <path d="M289 204c2.241 2.881 4.332 5.747 6 9l-1 3c-3-3.75-3-3.75-3-6h-2z" fill="#bebb48"/>
  <path d="M276 190c3.827 3.424 5.723 6.007 7 11l-3-2v-2h-2c-2-3-2-3-2-7" fill="#f0ea47"/>
  <path d="M433 84a351 351 0 0 1 4.813-.125l2.707-.07C443 84 443 84 446 86v2l-8-1v-1l-5-1z" fill="#e9e036"/>
  <path d="M171 82c1.418.115 2.834.243 4.25.375.789.07 1.578.14 2.39.21C180 83 180 83 184 85h-12z" fill="#95933b"/>
  <path d="M217 396c2.139 2.139 2.427 3.133 3 6l-7 2-1-4c2-1 2-1 5-1z" fill="#f3e641"/>
  <path d="M90 393c3.161 4.215 3.337 5.06 3 10l-4 2z" fill="#beb13b"/>
  <path d="M273 384c4.26 6.391 4.26 6.391 3.625 10.313L276 396c-2-3-2-3-2.5-6.125L273 387l-2-1h2z" fill="#aba135"/>
  <path d="M345 289c2.649 3.197 4.94 6.395 7 10l-4-1-1-5-3-1z" fill="#bdb846"/>
  <path d="M409 238c5 2 5 2 7 5l-1 4z" fill="#a69f3b"/>
  <path d="M241 182c1.813.188 1.813.188 4 1 1.813 2.313 1.813 2.313 3 5-.426 2.168-.426 2.168-1 4a1613 1613 0 0 1-3-4.437l-1.687-2.497C241 183 241 183 241 182" fill="#b9b743"/>
  <path d="M106 183c1.996.27 1.996.27 4.438.813l2.433.519C115 185 115 185 117 187c-1.626-.114-3.25-.242-4.875-.375-.905-.07-1.81-.14-2.742-.21C107 186 107 186 105 184z" fill="#a9a740"/>
  <path d="M501 132c3.58 4.173 3.267 6.669 3 12l-3-2c-.293-2.383-.293-2.383-.187-5.125l.082-2.758z" fill="#f1e958"/>
  <path d="M446 87c1.464.398 2.92.819 4.375 1.25l2.46.703c2.623 1.268 3.159 2.371 4.165 5.047l-7-1v-3l-4-2z" fill="#f0e94e"/>
  <path d="m472 73 7 3v3c-5.75-1.75-5.75-1.75-8-4z" fill="#d6d054"/>
  <path d="M377 391h1l.148 2.266.227 2.984c.07.975.14 1.95.21 2.953.4 2.693 1.05 4.467 2.415 6.797h-4c-1.097-3.411-.942-6.207-.562-9.75l.308-2.984z" fill="#9e9b23"/>
  <path d="M422 399c2.438.75 2.438.75 5 2 .938 2 .938 2 1 4l-2 2-3-4-2 1z" fill="#b7b53c"/>
  <path d="m476 399 2 1c-.312 3.375-.312 3.375-1 7l-3 2q.212-2.22.438-4.437c.08-.824.162-1.648.246-2.497C475 400 475 400 476 399" fill="#b9b549"/>
  <path d="M388 385c2.438.75 2.438.75 5 2 .938 2 .938 2 1 4l-2 2v-2l-3-1 1-3h-2z" fill="#beb53d"/>
  <path d="M31 278c2.615 2.366 4.264 4.942 6 8-3 0-3 0-6-2-.187-3.125-.187-3.125 0-6" fill="#b7b24f"/>
  <path d="M435 275a85 85 0 0 1 7 2l-1 4h-3z" fill="#ccca3f"/>
  <path d="M449 255h5c3.125 6.625 3.125 6.625 2 10-4-5.75-4-5.75-4-8l-3-1z" fill="#f1e94a"/>
  <path d="M167 205h7l2 4-9-2z" fill="#ded546"/>
  <path d="M265 170c2.964 2.808 5.445 5.183 7 9h-3c-4-5.143-4-5.143-4-9" fill="#b3b149"/>
  <path d="M471 159h2c-.468 4.056-.88 7.466-3 11h-2z" fill="#9f993c"/>
  <path d="M222 152c2.438.625 2.438.625 5 2 .813 3.125.813 3.125 1 6-3.754-1.251-4.24-2.565-6-6z" fill="#bfbe4c"/>
  <path d="m433 402 4 2-1 6h-2z" fill="#bcac3e"/>
  <path d="m221 391 1 2 3 1c-.375 1.938-.375 1.938-1 4l-2 1c-.73-1.977-1.394-3.98-2-6z" fill="#e8dd3d"/>
  <path d="m476 204-2 3c-3.625.688-3.625.688-7 1l-1-2c3.402-2.094 6.053-2.18 10-2" fill="#eae346"/>
  <path d="M35 175c3 1 3 1 4 3 .04 2 .043 4 0 6-3.938-3.323-3.938-3.323-4.25-6.75z" fill="#bbb93f"/>
  <path d="m232 124 1 2 3-1 3 10h-2l-1.375-2.875c-1.427-3.128-1.427-3.128-3.625-5.125z" fill="#f4f054"/>
  <path d="M494 96c2.721 2.35 3.967 4.557 5 8l-1 3c-2-1-2-1-3.125-3.812C494 100 494 100 494 96" fill="#959134"/>
  <path d="M463 100h2c3 4.385 3 4.385 3 7-1.875-.187-1.875-.187-4-1-1.25-2.562-1.25-2.562-2-5z" fill="#d2cf48"/>
  <path d="M186 90c5.395-.216 9.955-.215 15 2l2 2-2.105-.434c-3.062-.599-6.13-1.121-9.208-1.629l-3.238-.535L186 91z" fill="#f1e93b"/>
  <path d="M424 81h11v2l3 1-14-1z" fill="#f2e72a"/>
  <path d="M454 65c5.75.75 5.75.75 8 3l-5 2v-2l-3-1z" fill="#d1ce53"/>
  <path d="m371 60 13 2v1h-17l4-1z" fill="#cfcb4c"/>
  <path d="m182 399 1 2 3 1v2l-6 2a85 85 0 0 1 2-7" fill="#d4cc40"/>
  <path d="M232 394h1v8h-3c.875-6.875.875-6.875 2-8" fill="#f6e744"/>
  <path d="m268 390 3 1c1.25 2.938 1.25 2.938 2 6l-1 2h-2z" fill="#e7de33"/>
  <path d="m177 296 1 4c-1.187 1.813-1.187 1.813-3 3l-4-1z" fill="#8a8328"/>
  <path d="M51 297c5.75 1.75 5.75 1.75 8 4-3.623 1.208-4.641.543-8-1z" fill="#8a842e"/>
  <path d="M320 299h4c1.563 2.813 1.563 2.813 3 6l-1 3c-2-2-2-2-2.437-3.937-.667-2.443-1.679-3.425-3.563-5.063" fill="#ece84a"/>
  <path d="M59 199c3.558.61 6.683 1.578 10 3v2c-3.949-.564-6.709-1.743-10-4z" fill="#c2be45"/>
  <path d="M61 154c2.172 3.259 4.071 6.592 6 10h-3l-1-4h-2c-1.125-3.75-1.125-3.75 0-6" fill="#999037"/>
  <path d="m497 110 2 1c.633 2.504.633 2.504 1.125 5.563l.508 3.066L501 122l-3-1z" fill="#f1eb43"/>
  <path d="m399 104 3 1-4 8-2-1c.547-3.375 1.055-5.082 3-8" fill="#cac451"/>
  <path d="M408 99h8l-4 2-3.125 1.688L406 104l-2-1 3-1z" fill="#9d9a40"/>
  <path d="M56 401v2h-2l-1 2v-2h-3l-1 2-1-3c5.75-2.125 5.75-2.125 8-1" fill="#b5ac37"/>
  <path d="m220 395 3 3 2-1-1 5h-3z" fill="#f7eb4e"/>
  <path d="m307 386 2 1v5h-2v-2h-3v-3z" fill="#cbbe3e"/>
  <path d="m411 383 5 1-2 6-3-2c-.187-2.625-.187-2.625 0-5" fill="#918c36"/>
  <path d="M441 280c2.523 1.974 2.993 2.967 3.688 6.188L445 289c-4.875-4.625-4.875-4.625-6-8z" fill="#b3af35"/>
  <path d="M393 248c2.222 2.222 2.926 4.085 4 7l-5 1z" fill="#d9d032"/>
  <path d="M406 228c1.991 2.986 2.941 5.597 4 9-1.937-.687-1.937-.687-4-2-.936-2.88-1.372-4.255 0-7" fill="#bcb043"/>
  <path d="M46 186c3.375 1.186 5.647 2.276 8 5l-1 2c-2.375-.687-2.375-.687-5-2-1.312-2.625-1.312-2.625-2-5" fill="#f0ea36"/>
  <path d="m463 183 1 3c-1.062 1.5-1.062 1.5-3 3-3.687.188-3.687.188-7 0l1.688-.75c2.712-1.466 4.948-3.28 7.312-5.25" fill="#efe841"/>
  <path d="m235 173 4 1c1.75 3.063 1.75 3.063 3 6l-2 2z" fill="#bbba46"/>
  <path d="M69 170c3.594 1.335 6.755 2.96 10 5-3 1-3 1-4.824.223L69 172z" fill="#ece447"/>
  <path d="m242 136 3 1c1.188 2.563 1.188 2.563 2 5l-2 1v-2h-3z" fill="#bfb947"/>
  <path d="m66 122 3 1-5 8-2-1v-2h2l.438-2.437C65 123 65 123 66 122" fill="#9b9736"/>
  <path d="M162 111c4.557.438 7.577.85 11 4l-9-1v-2z" fill="#adaa3b"/>
  <path d="m47 399 6 1c-3 2-3 2-5 2v4h-2z" fill="#e3d835"/>
  <path d="M57 396c1.563 1.25 1.563 1.25 3 3-.312 2.188-.312 2.188-1 4l-4-2z" fill="#e9e43e"/>
  <path d="M183 390c2.29 3.435 2.178 4.985 2 9h-2c-.879-6.152-.879-6.152-1-8z" fill="#dcc44b"/>
  <path d="M109 382v6l-2-1v-3h-7v-1c3.058-.544 5.888-1 9-1" fill="#c0bd57"/>
  <path d="M311 288h4c1.46 2.647 2 3.894 2 7h-2z" fill="#b1ab41"/>
  <path d="m27 276 4 1v6h-2c-1.46-2.647-2-3.894-2-7" fill="#f0e873"/>
  <path d="M254 196q1.758 1.428 3.5 2.875l1.969 1.617L261 202v2h-3c-4-5.257-4-5.257-4-8" fill="#f4ed3b"/>
  <path d="M39 184c4.677 1.477 4.677 1.477 6.313 4.125L46 190c-1.812-.187-1.812-.187-4-1-1.75-2.562-1.75-2.562-3-5" fill="#9a983a"/>
  <path d="M27 157c2 1 2 1 3.188 3.25.901 3.052.676 4.727-.188 7.75-2.566-3.85-2.551-6.435-3-11" fill="#746f2b"/>
  <path d="M220 145c3 1 3 1 4.25 2.875C225 150 225 150 224 153c-2.9-2.395-3.502-4.312-4-8" fill="#f4f044"/>
  <path d="M502 140c2.326 3.634 2.163 6.77 2 11-1.5-1.125-1.5-1.125-3-3-.253-3.095-.4-5.201 1-8" fill="#b9ae3d"/>
  <path d="M49 97c-.312 1.875-.312 1.875-1 4l-3 2-3-1c4.75-5 4.75-5 7-5" fill="#afa94d"/>
  <path d="M62 401c1.563 1.688 1.563 1.688 3 4-.312 2.75-.312 2.75-1 5h-4v-2h3z" fill="#c0b93d"/>
  <path d="M272 403h2v6h-3c-.625-1.875-.625-1.875-1-4z" fill="#e2da54"/>
  <path d="m217 387 3 2c.188 3.625.188 3.625 0 7l-2-2v-3l-2-1z" fill="#f0e544"/>
  <path d="M356 344h2c1.125 2.313 1.125 2.313 2 5l-2 3c-2.152-3.228-2.2-4.284-2-8" fill="#f0e50f"/>
  <path d="m37 329 9 1v2c-6.75-.75-6.75-.75-9-3" fill="#a6a438"/>
  <path d="M463 315h3v2h2l1 3h-2l-1 2z" fill="#c1b943"/>
  <path d="m468 280 6 3-1 3-5-2z" fill="#efe64e"/>
  <path d="m27 272 3 1c.688 2.063.688 2.063 1 4h-5z" fill="#918f56"/>
  <path d="M434 268c3.08 2.773 4.688 5.063 6 9l-5-2z" fill="#ece843"/>
  <path d="M268 222h3c2 3 2 3 1.625 5.188L272 229c-4-4.75-4-4.75-4-7" fill="#bdba45"/>
  <path d="M320 195c4.8 3.446 4.8 3.446 5.813 6.25L326 203l-6-3z" fill="#f1e84b"/>
  <path d="M310 187c5 2 5 2 6.375 3.938C317 193 317 193 316 196z" fill="#aaa642"/>
  <path d="M276 185c2.34 2.128 3.707 4.116 5 7-1.875-.25-1.875-.25-4-1-1.312-1.937-1.312-1.937-2-4z" fill="#a4a33e"/>
  <path d="M336 84h8v2l-7 1z" fill="#dbd938"/>
  <path d="M50 405h1v5l-9-1v-2h7z" fill="#b4af37"/>
  <path d="M370 389h2l-1 8-2-1z" fill="#dbd250"/>
  <path d="M266 382h6l1 2h-6l-1 2z" fill="#a9a13e"/>
  <path d="M465 313h2v2h3l1 3-3 1v-2h-2z" fill="#f3eb31"/>
  <path d="M208 312h3c-1.393 3.367-2.979 4.986-6 7 .75-4.75.75-4.75 3-7" fill="#8d8737"/>
  <path d="M326 307h3v7l-4-5z" fill="#cdc743"/>
  <path d="M214 304h2c-1.186 3.375-2.276 5.647-5 8 .547-3.375 1.055-5.082 3-8" fill="#b8b544"/>
  <path d="m457 259 5 5-1 3c-3-2-3-2-3.687-5.125z" fill="#939133"/>
  <path d="M181 246h2c1.498 3.371 2 5.204 2 9l-2-1v-5l-3-1z" fill="#e8e050"/>
  <path d="m415 241 3 1 1 5-3 1z" fill="#eae23f"/>
  <path d="M428 219h2l1 6-4-2z" fill="#f2ea59"/>
  <path d="m320 200 4 1 1 6a141 141 0 0 1-5-5z" fill="#949230"/>
  <path d="M61 198c6.152.586 6.152.586 8 1l1 2c-5.538.37-5.538.37-7.875-1.5z" fill="#ede535"/>
  <path d="m141 194 9 2c-4 2-4 2-6.75 1.125L141 196z" fill="#a2a03e"/>
  <path d="m460 182 1 4c-3 2-3 2-5.187 1.625L454 187z" fill="#a9a72f"/>
  <path d="M67 164a698 698 0 0 1 3.5 2.438l1.969 1.37L74 169v1h-5z" fill="#8d8833"/>
  <path d="M233 164c2.569 1.284 2.947 2.366 4 5v4h-2z" fill="#ece851"/>
  <path d="M236 125c2.252 2.688 3.882 4.646 5 8l-4-1z" fill="#c2be4e"/>
  <path d="M108 107c-1.5 1.563-1.5 1.563-4 3-2.774-.032-5.253-.496-8-1v-1c4.053-.982 7.839-1.082 12-1" fill="#d4d23f"/>
  <path d="m94 104 2 1v2c-6.964 2.277-6.964 2.277-11 1a419 419 0 0 1 4.375-2.062l2.46-1.16z" fill="#f2eb2a"/>
  <path d="M462 67c2.352.599 4.686 1.27 7 2l1 2c-6.75-.75-6.75-.75-9-3z" fill="#908939"/>
  <path d="M289 64c3.125.375 3.125.375 6 1l-1 3-7-2z" fill="#b7b35a"/>
  <path d="M282 61h4l1 4-5-1z" fill="#8c905e"/>
</svg>
